<?xml version="1.0" encoding="utf-8" standalone="no"?>
<!DOCTYPE svg PUBLIC "-//W3C//DTD SVG 1.1//EN"
  "http://www.w3.org/Graphics/SVG/1.1/DTD/svg11.dtd">
<!-- Created with matplotlib (http://matplotlib.org/) -->
<svg height="394pt" version="1.1" viewBox="0 0 503 394" width="503pt" xmlns="http://www.w3.org/2000/svg" xmlns:xlink="http://www.w3.org/1999/xlink">
 <defs>
  <style type="text/css">
*{stroke-linecap:butt;stroke-linejoin:round;stroke-miterlimit:100000;}
  </style>
 </defs>
 <g id="figure_1">
  <g id="patch_1">
   <path d="M 0 394.472187 
L 503.904062 394.472187 
L 503.904062 0 
L 0 0 
z
" style="fill:#ffffff;"/>
  </g>
  <g id="axes_1">
   <g id="patch_2">
    <path d="M 43.354062 355.69625 
L 489.754062 355.69625 
L 489.754062 20.89625 
L 43.354062 20.89625 
z
" style="fill:#eaeaf2;"/>
   </g>
   <g id="matplotlib.axis_1">
    <g id="xtick_1">
     <g id="line2d_1">
      <path clip-path="url(#p6140dc3359)" d="M 43.354062 355.69625 
L 43.354062 20.89625 
" style="fill:none;stroke:#ffffff;stroke-linecap:round;"/>
     </g>
     <g id="line2d_2"/>
     <g id="line2d_3"/>
     <g id="text_1">
      <!-- 2.5 -->
      <defs>
       <path d="M 9.125 0 
L 9.125 10.6875 
L 18.65625 10.6875 
L 18.65625 0 
z
" id="LiberationSans-2e"/>
       <path d="M 51.421875 22.40625 
Q 51.421875 17.234375 49.859375 12.9375 
Q 48.296875 8.640625 45.21875 5.53125 
Q 42.140625 2.4375 37.578125 0.71875 
Q 33.015625 -0.984375 27 -0.984375 
Q 21.578125 -0.984375 17.546875 0.28125 
Q 13.53125 1.5625 10.734375 3.78125 
Q 7.953125 6 6.3125 8.984375 
Q 4.6875 11.96875 4 15.375 
L 12.890625 16.40625 
Q 13.421875 14.453125 14.390625 12.625 
Q 15.375 10.796875 17.0625 9.34375 
Q 18.75 7.90625 21.21875 7.046875 
Q 23.6875 6.203125 27.203125 6.203125 
Q 30.609375 6.203125 33.390625 7.25 
Q 36.1875 8.296875 38.15625 10.34375 
Q 40.140625 12.40625 41.203125 15.375 
Q 42.28125 18.359375 42.28125 22.21875 
Q 42.28125 25.390625 41.25 28.046875 
Q 40.234375 30.71875 38.328125 32.640625 
Q 36.421875 34.578125 33.65625 35.640625 
Q 30.90625 36.71875 27.390625 36.71875 
Q 25.203125 36.71875 23.34375 36.328125 
Q 21.484375 35.9375 19.890625 35.25 
Q 18.3125 34.578125 17.015625 33.671875 
Q 15.71875 32.765625 14.59375 31.78125 
L 6 31.78125 
L 8.296875 68.796875 
L 47.40625 68.796875 
L 47.40625 61.328125 
L 16.3125 61.328125 
L 14.984375 39.5 
Q 17.328125 41.3125 20.84375 42.59375 
Q 24.359375 43.890625 29.203125 43.890625 
Q 34.328125 43.890625 38.421875 42.328125 
Q 42.53125 40.765625 45.40625 37.90625 
Q 48.296875 35.0625 49.859375 31.109375 
Q 51.421875 27.15625 51.421875 22.40625 
" id="LiberationSans-35"/>
       <path d="M 5.03125 0 
L 5.03125 6.203125 
Q 7.515625 11.921875 11.109375 16.28125 
Q 14.703125 20.65625 18.65625 24.1875 
Q 22.609375 27.734375 26.484375 30.765625 
Q 30.375 33.796875 33.5 36.8125 
Q 36.625 39.84375 38.546875 43.15625 
Q 40.484375 46.484375 40.484375 50.6875 
Q 40.484375 53.609375 39.59375 55.828125 
Q 38.71875 58.0625 37.0625 59.5625 
Q 35.40625 61.078125 33.078125 61.828125 
Q 30.765625 62.59375 27.9375 62.59375 
Q 25.296875 62.59375 22.96875 61.859375 
Q 20.65625 61.140625 18.84375 59.671875 
Q 17.046875 58.203125 15.890625 56.03125 
Q 14.75 53.859375 14.40625 50.984375 
L 5.421875 51.8125 
Q 5.859375 55.515625 7.46875 58.78125 
Q 9.078125 62.0625 11.90625 64.53125 
Q 14.75 67 18.71875 68.40625 
Q 22.703125 69.828125 27.9375 69.828125 
Q 33.0625 69.828125 37.0625 68.609375 
Q 41.0625 67.390625 43.8125 64.984375 
Q 46.578125 62.59375 48.046875 59.078125 
Q 49.515625 55.5625 49.515625 50.984375 
Q 49.515625 47.515625 48.265625 44.390625 
Q 47.015625 41.265625 44.9375 38.421875 
Q 42.875 35.59375 40.140625 32.953125 
Q 37.40625 30.328125 34.421875 27.8125 
Q 31.453125 25.296875 28.421875 22.828125 
Q 25.390625 20.359375 22.71875 17.859375 
Q 20.0625 15.375 17.96875 12.8125 
Q 15.875 10.25 14.703125 7.46875 
L 50.59375 7.46875 
L 50.59375 0 
z
" id="LiberationSans-32"/>
      </defs>
      <g style="fill:#808080;" transform="translate(36.4040625 369.943125)scale(0.1 -0.1)">
       <use xlink:href="#LiberationSans-32"/>
       <use x="55.615234375" xlink:href="#LiberationSans-2e"/>
       <use x="83.3984375" xlink:href="#LiberationSans-35"/>
      </g>
     </g>
    </g>
    <g id="xtick_2">
     <g id="line2d_4">
      <path clip-path="url(#p6140dc3359)" d="M 117.754063 355.69625 
L 117.754063 20.89625 
" style="fill:none;stroke:#ffffff;stroke-linecap:round;"/>
     </g>
     <g id="line2d_5"/>
     <g id="line2d_6"/>
     <g id="text_2">
      <!-- 3.0 -->
      <defs>
       <path d="M 51.703125 34.421875 
Q 51.703125 24.515625 49.828125 17.75 
Q 47.953125 10.984375 44.703125 6.8125 
Q 41.453125 2.640625 37.0625 0.828125 
Q 32.671875 -0.984375 27.6875 -0.984375 
Q 22.65625 -0.984375 18.3125 0.828125 
Q 13.96875 2.640625 10.765625 6.78125 
Q 7.5625 10.9375 5.734375 17.703125 
Q 3.90625 24.46875 3.90625 34.421875 
Q 3.90625 44.828125 5.734375 51.640625 
Q 7.5625 58.453125 10.78125 62.5 
Q 14.015625 66.546875 18.40625 68.1875 
Q 22.796875 69.828125 27.984375 69.828125 
Q 32.90625 69.828125 37.21875 68.1875 
Q 41.546875 66.546875 44.765625 62.5 
Q 48 58.453125 49.84375 51.640625 
Q 51.703125 44.828125 51.703125 34.421875 
M 42.78125 34.421875 
Q 42.78125 42.625 41.796875 48.0625 
Q 40.828125 53.515625 38.921875 56.765625 
Q 37.015625 60.015625 34.25 61.359375 
Q 31.5 62.703125 27.984375 62.703125 
Q 24.265625 62.703125 21.4375 61.328125 
Q 18.609375 59.96875 16.671875 56.71875 
Q 14.75 53.46875 13.765625 48.015625 
Q 12.796875 42.578125 12.796875 34.421875 
Q 12.796875 26.515625 13.796875 21.09375 
Q 14.796875 15.671875 16.71875 12.375 
Q 18.65625 9.078125 21.4375 7.640625 
Q 24.21875 6.203125 27.78125 6.203125 
Q 31.25 6.203125 34.03125 7.640625 
Q 36.8125 9.078125 38.734375 12.375 
Q 40.671875 15.671875 41.71875 21.09375 
Q 42.78125 26.515625 42.78125 34.421875 
" id="LiberationSans-30"/>
       <path d="M 51.21875 19 
Q 51.21875 14.265625 49.671875 10.546875 
Q 48.140625 6.84375 45.1875 4.265625 
Q 42.234375 1.703125 37.859375 0.359375 
Q 33.5 -0.984375 27.875 -0.984375 
Q 21.484375 -0.984375 17.109375 0.609375 
Q 12.75 2.203125 9.90625 4.8125 
Q 7.078125 7.421875 5.65625 10.765625 
Q 4.25 14.109375 3.8125 17.671875 
L 12.890625 18.5 
Q 13.28125 15.765625 14.328125 13.515625 
Q 15.375 11.28125 17.1875 9.671875 
Q 19 8.0625 21.625 7.171875 
Q 24.265625 6.296875 27.875 6.296875 
Q 34.515625 6.296875 38.296875 9.5625 
Q 42.09375 12.84375 42.09375 19.28125 
Q 42.09375 23.09375 40.40625 25.40625 
Q 38.71875 27.734375 36.203125 29.03125 
Q 33.6875 30.328125 30.734375 30.765625 
Q 27.78125 31.203125 25.296875 31.203125 
L 20.3125 31.203125 
L 20.3125 38.8125 
L 25.09375 38.8125 
Q 27.59375 38.8125 30.265625 39.328125 
Q 32.953125 39.84375 35.171875 41.1875 
Q 37.40625 42.53125 38.84375 44.828125 
Q 40.28125 47.125 40.28125 50.6875 
Q 40.28125 56.203125 37.03125 59.390625 
Q 33.796875 62.59375 27.390625 62.59375 
Q 21.578125 62.59375 17.984375 59.609375 
Q 14.40625 56.640625 13.8125 51.21875 
L 4.984375 51.90625 
Q 5.515625 56.453125 7.46875 59.8125 
Q 9.421875 63.1875 12.421875 65.40625 
Q 15.4375 67.625 19.28125 68.71875 
Q 23.140625 69.828125 27.484375 69.828125 
Q 33.25 69.828125 37.390625 68.375 
Q 41.546875 66.9375 44.1875 64.46875 
Q 46.828125 62.015625 48.0625 58.6875 
Q 49.3125 55.375 49.3125 51.609375 
Q 49.3125 48.578125 48.484375 45.9375 
Q 47.65625 43.3125 45.890625 41.203125 
Q 44.140625 39.109375 41.421875 37.59375 
Q 38.71875 36.078125 34.90625 35.296875 
L 34.90625 35.109375 
Q 39.0625 34.671875 42.140625 33.21875 
Q 45.21875 31.78125 47.21875 29.625 
Q 49.21875 27.484375 50.21875 24.75 
Q 51.21875 22.015625 51.21875 19 
" id="LiberationSans-33"/>
      </defs>
      <g style="fill:#808080;" transform="translate(110.8040625 369.943125)scale(0.1 -0.1)">
       <use xlink:href="#LiberationSans-33"/>
       <use x="55.615234375" xlink:href="#LiberationSans-2e"/>
       <use x="83.3984375" xlink:href="#LiberationSans-30"/>
      </g>
     </g>
    </g>
    <g id="xtick_3">
     <g id="line2d_7">
      <path clip-path="url(#p6140dc3359)" d="M 192.154063 355.69625 
L 192.154063 20.89625 
" style="fill:none;stroke:#ffffff;stroke-linecap:round;"/>
     </g>
     <g id="line2d_8"/>
     <g id="line2d_9"/>
     <g id="text_3">
      <!-- 3.5 -->
      <g style="fill:#808080;" transform="translate(185.2040625 369.943125)scale(0.1 -0.1)">
       <use xlink:href="#LiberationSans-33"/>
       <use x="55.615234375" xlink:href="#LiberationSans-2e"/>
       <use x="83.3984375" xlink:href="#LiberationSans-35"/>
      </g>
     </g>
    </g>
    <g id="xtick_4">
     <g id="line2d_10">
      <path clip-path="url(#p6140dc3359)" d="M 266.554062 355.69625 
L 266.554062 20.89625 
" style="fill:none;stroke:#ffffff;stroke-linecap:round;"/>
     </g>
     <g id="line2d_11"/>
     <g id="line2d_12"/>
     <g id="text_4">
      <!-- 4.0 -->
      <defs>
       <path d="M 43.015625 15.578125 
L 43.015625 0 
L 34.71875 0 
L 34.71875 15.578125 
L 2.296875 15.578125 
L 2.296875 22.40625 
L 33.796875 68.796875 
L 43.015625 68.796875 
L 43.015625 22.515625 
L 52.6875 22.515625 
L 52.6875 15.578125 
z
M 34.71875 58.890625 
Q 34.625 58.640625 34.234375 57.9375 
Q 33.84375 57.234375 33.34375 56.34375 
Q 32.859375 55.46875 32.34375 54.5625 
Q 31.84375 53.65625 31.453125 53.078125 
L 13.8125 27.09375 
Q 13.578125 26.703125 13.109375 26.0625 
Q 12.640625 25.4375 12.15625 24.78125 
Q 11.671875 24.125 11.171875 23.484375 
Q 10.6875 22.859375 10.40625 22.515625 
L 34.71875 22.515625 
z
" id="LiberationSans-34"/>
      </defs>
      <g style="fill:#808080;" transform="translate(259.6040625 369.943125)scale(0.1 -0.1)">
       <use xlink:href="#LiberationSans-34"/>
       <use x="55.615234375" xlink:href="#LiberationSans-2e"/>
       <use x="83.3984375" xlink:href="#LiberationSans-30"/>
      </g>
     </g>
    </g>
    <g id="xtick_5">
     <g id="line2d_13">
      <path clip-path="url(#p6140dc3359)" d="M 340.954062 355.69625 
L 340.954062 20.89625 
" style="fill:none;stroke:#ffffff;stroke-linecap:round;"/>
     </g>
     <g id="line2d_14"/>
     <g id="line2d_15"/>
     <g id="text_5">
      <!-- 4.5 -->
      <g style="fill:#808080;" transform="translate(334.0040625 369.943125)scale(0.1 -0.1)">
       <use xlink:href="#LiberationSans-34"/>
       <use x="55.615234375" xlink:href="#LiberationSans-2e"/>
       <use x="83.3984375" xlink:href="#LiberationSans-35"/>
      </g>
     </g>
    </g>
    <g id="xtick_6">
     <g id="line2d_16">
      <path clip-path="url(#p6140dc3359)" d="M 415.354062 355.69625 
L 415.354062 20.89625 
" style="fill:none;stroke:#ffffff;stroke-linecap:round;"/>
     </g>
     <g id="line2d_17"/>
     <g id="line2d_18"/>
     <g id="text_6">
      <!-- 5.0 -->
      <g style="fill:#808080;" transform="translate(408.4040625 369.943125)scale(0.1 -0.1)">
       <use xlink:href="#LiberationSans-35"/>
       <use x="55.615234375" xlink:href="#LiberationSans-2e"/>
       <use x="83.3984375" xlink:href="#LiberationSans-30"/>
      </g>
     </g>
    </g>
    <g id="xtick_7">
     <g id="line2d_19">
      <path clip-path="url(#p6140dc3359)" d="M 489.754062 355.69625 
L 489.754062 20.89625 
" style="fill:none;stroke:#ffffff;stroke-linecap:round;"/>
     </g>
     <g id="line2d_20"/>
     <g id="line2d_21"/>
     <g id="text_7">
      <!-- 5.5 -->
      <g style="fill:#808080;" transform="translate(482.8040625 369.943125)scale(0.1 -0.1)">
       <use xlink:href="#LiberationSans-35"/>
       <use x="55.615234375" xlink:href="#LiberationSans-2e"/>
       <use x="83.3984375" xlink:href="#LiberationSans-35"/>
      </g>
     </g>
    </g>
    <g id="text_8">
     <!-- log10 income -->
     <defs>
      <path id="LiberationSans-20"/>
      <path d="M 6.6875 64.0625 
L 6.6875 72.46875 
L 15.484375 72.46875 
L 15.484375 64.0625 
z
M 6.6875 0 
L 6.6875 52.828125 
L 15.484375 52.828125 
L 15.484375 0 
z
" id="LiberationSans-69"/>
      <path d="M 37.5 0 
L 37.5 33.5 
Q 37.5 37.359375 37.015625 39.9375 
Q 36.53125 42.53125 35.375 44.109375 
Q 34.234375 45.703125 32.375 46.359375 
Q 30.515625 47.015625 27.828125 47.015625 
Q 25.046875 47.015625 22.796875 45.921875 
Q 20.5625 44.828125 18.96875 42.75 
Q 17.390625 40.671875 16.53125 37.625 
Q 15.671875 34.578125 15.671875 30.609375 
L 15.671875 0 
L 6.9375 0 
L 6.9375 41.546875 
Q 6.9375 43.21875 6.90625 45.046875 
Q 6.890625 46.875 6.828125 48.5 
Q 6.78125 50.140625 6.734375 51.3125 
Q 6.6875 52.484375 6.640625 52.828125 
L 14.9375 52.828125 
Q 14.984375 52.59375 15.03125 51.515625 
Q 15.09375 50.4375 15.15625 49.046875 
Q 15.234375 47.65625 15.28125 46.21875 
Q 15.328125 44.78125 15.328125 43.796875 
L 15.484375 43.796875 
Q 16.65625 46.09375 18.015625 47.953125 
Q 19.390625 49.8125 21.21875 51.09375 
Q 23.046875 52.390625 25.40625 53.09375 
Q 27.78125 53.8125 30.90625 53.8125 
Q 36.921875 53.8125 40.40625 51.421875 
Q 43.890625 49.03125 45.265625 43.796875 
L 45.40625 43.796875 
Q 46.578125 46.09375 48.046875 47.953125 
Q 49.515625 49.8125 51.46875 51.09375 
Q 53.421875 52.390625 55.859375 53.09375 
Q 58.296875 53.8125 61.421875 53.8125 
Q 65.4375 53.8125 68.328125 52.734375 
Q 71.234375 51.65625 73.09375 49.40625 
Q 74.953125 47.171875 75.828125 43.625 
Q 76.703125 40.09375 76.703125 35.203125 
L 76.703125 0 
L 68.015625 0 
L 68.015625 33.5 
Q 68.015625 37.359375 67.53125 39.9375 
Q 67.046875 42.53125 65.890625 44.109375 
Q 64.75 45.703125 62.890625 46.359375 
Q 61.03125 47.015625 58.34375 47.015625 
Q 55.5625 47.015625 53.3125 45.96875 
Q 51.078125 44.921875 49.484375 42.875 
Q 47.90625 40.828125 47.046875 37.75 
Q 46.1875 34.671875 46.1875 30.609375 
L 46.1875 0 
z
" id="LiberationSans-6d"/>
      <path d="M 6.734375 0 
L 6.734375 72.46875 
L 15.53125 72.46875 
L 15.53125 0 
z
" id="LiberationSans-6c"/>
      <path d="M 13.484375 24.5625 
Q 13.484375 20.40625 14.328125 16.90625 
Q 15.1875 13.421875 16.96875 10.90625 
Q 18.75 8.40625 21.53125 7 
Q 24.3125 5.609375 28.21875 5.609375 
Q 33.9375 5.609375 37.375 7.90625 
Q 40.828125 10.203125 42.046875 13.71875 
L 49.75 11.53125 
Q 48.921875 9.328125 47.4375 7.109375 
Q 45.953125 4.890625 43.453125 3.09375 
Q 40.96875 1.3125 37.234375 0.15625 
Q 33.5 -0.984375 28.21875 -0.984375 
Q 16.5 -0.984375 10.375 6 
Q 4.25 12.984375 4.25 26.765625 
Q 4.25 34.1875 6.09375 39.328125 
Q 7.953125 44.484375 11.171875 47.703125 
Q 14.40625 50.921875 18.703125 52.359375 
Q 23 53.8125 27.875 53.8125 
Q 34.515625 53.8125 38.984375 51.65625 
Q 43.453125 49.515625 46.15625 45.71875 
Q 48.875 41.9375 50.015625 36.8125 
Q 51.171875 31.6875 51.171875 25.734375 
L 51.171875 24.5625 
z
M 42.09375 31.296875 
Q 41.359375 39.65625 37.84375 43.484375 
Q 34.328125 47.3125 27.734375 47.3125 
Q 25.53125 47.3125 23.109375 46.609375 
Q 20.703125 45.90625 18.65625 44.09375 
Q 16.609375 42.28125 15.1875 39.171875 
Q 13.765625 36.078125 13.578125 31.296875 
z
" id="LiberationSans-65"/>
      <path d="M 7.625 0 
L 7.625 7.46875 
L 25.140625 7.46875 
L 25.140625 60.40625 
L 9.625 49.3125 
L 9.625 57.625 
L 25.875 68.796875 
L 33.984375 68.796875 
L 33.984375 7.46875 
L 50.734375 7.46875 
L 50.734375 0 
z
" id="LiberationSans-31"/>
      <path d="M 13.421875 26.65625 
Q 13.421875 22.125 14.078125 18.3125 
Q 14.75 14.5 16.3125 11.734375 
Q 17.875 8.984375 20.4375 7.46875 
Q 23 5.953125 26.765625 5.953125 
Q 31.453125 5.953125 34.59375 8.484375 
Q 37.75 11.03125 38.484375 16.3125 
L 47.359375 15.71875 
Q 46.921875 12.453125 45.453125 9.421875 
Q 44 6.390625 41.484375 4.09375 
Q 38.96875 1.8125 35.34375 0.40625 
Q 31.734375 -0.984375 27 -0.984375 
Q 20.796875 -0.984375 16.453125 1.109375 
Q 12.109375 3.21875 9.390625 6.90625 
Q 6.6875 10.59375 5.46875 15.59375 
Q 4.25 20.609375 4.25 26.46875 
Q 4.25 31.78125 5.125 35.859375 
Q 6 39.9375 7.59375 42.984375 
Q 9.1875 46.046875 11.328125 48.125 
Q 13.484375 50.203125 15.984375 51.4375 
Q 18.5 52.6875 21.28125 53.25 
Q 24.078125 53.8125 26.90625 53.8125 
Q 31.34375 53.8125 34.8125 52.59375 
Q 38.28125 51.375 40.796875 49.25 
Q 43.3125 47.125 44.875 44.234375 
Q 46.4375 41.359375 47.078125 38.03125 
L 38.03125 37.359375 
Q 37.359375 41.75 34.5625 44.328125 
Q 31.78125 46.921875 26.65625 46.921875 
Q 22.90625 46.921875 20.390625 45.671875 
Q 17.875 44.4375 16.3125 41.921875 
Q 14.75 39.40625 14.078125 35.59375 
Q 13.421875 31.78125 13.421875 26.65625 
" id="LiberationSans-63"/>
      <path d="M 26.765625 -20.75 
Q 22.21875 -20.75 18.703125 -19.8125 
Q 15.1875 -18.890625 12.6875 -17.15625 
Q 10.203125 -15.4375 8.640625 -13.03125 
Q 7.078125 -10.640625 6.390625 -7.71875 
L 15.234375 -6.453125 
Q 16.109375 -10.109375 19.109375 -12.078125 
Q 22.125 -14.0625 27 -14.0625 
Q 29.984375 -14.0625 32.421875 -13.234375 
Q 34.859375 -12.40625 36.5625 -10.5625 
Q 38.28125 -8.734375 39.203125 -5.796875 
Q 40.140625 -2.875 40.140625 1.3125 
L 40.140625 9.8125 
L 40.046875 9.8125 
Q 39.0625 7.8125 37.625 5.984375 
Q 36.1875 4.15625 34.109375 2.734375 
Q 32.03125 1.3125 29.296875 0.453125 
Q 26.5625 -0.390625 23.046875 -0.390625 
Q 18.015625 -0.390625 14.421875 1.296875 
Q 10.84375 2.984375 8.5625 6.34375 
Q 6.296875 9.71875 5.25 14.71875 
Q 4.203125 19.734375 4.203125 26.3125 
Q 4.203125 32.671875 5.25 37.75 
Q 6.296875 42.828125 8.65625 46.359375 
Q 11.03125 49.90625 14.8125 51.78125 
Q 18.609375 53.65625 24.03125 53.65625 
Q 29.640625 53.65625 33.765625 51.09375 
Q 37.890625 48.53125 40.140625 43.796875 
L 40.234375 43.796875 
Q 40.234375 45.015625 40.296875 46.53125 
Q 40.375 48.046875 40.453125 49.390625 
Q 40.53125 50.734375 40.625 51.703125 
Q 40.71875 52.6875 40.828125 52.828125 
L 49.171875 52.828125 
Q 49.125 52.390625 49.078125 51.34375 
Q 49.03125 50.296875 48.96875 48.828125 
Q 48.921875 47.359375 48.890625 45.578125 
Q 48.875 43.796875 48.875 41.890625 
L 48.875 1.515625 
Q 48.875 -9.578125 43.421875 -15.15625 
Q 37.984375 -20.75 26.765625 -20.75 
M 40.140625 26.421875 
Q 40.140625 31.9375 38.9375 35.859375 
Q 37.75 39.796875 35.796875 42.28125 
Q 33.84375 44.78125 31.328125 45.953125 
Q 28.8125 47.125 26.171875 47.125 
Q 22.796875 47.125 20.375 45.953125 
Q 17.96875 44.78125 16.375 42.265625 
Q 14.796875 39.75 14.03125 35.8125 
Q 13.28125 31.890625 13.28125 26.421875 
Q 13.28125 20.703125 14.03125 16.8125 
Q 14.796875 12.9375 16.359375 10.546875 
Q 17.921875 8.15625 20.3125 7.125 
Q 22.703125 6.109375 26.03125 6.109375 
Q 28.65625 6.109375 31.171875 7.21875 
Q 33.6875 8.34375 35.6875 10.78125 
Q 37.703125 13.234375 38.921875 17.09375 
Q 40.140625 20.953125 40.140625 26.421875 
" id="LiberationSans-67"/>
      <path d="M 40.28125 0 
L 40.28125 33.5 
Q 40.28125 37.359375 39.71875 39.9375 
Q 39.15625 42.53125 37.890625 44.109375 
Q 36.625 45.703125 34.546875 46.359375 
Q 32.46875 47.015625 29.390625 47.015625 
Q 26.265625 47.015625 23.75 45.921875 
Q 21.234375 44.828125 19.453125 42.75 
Q 17.671875 40.671875 16.6875 37.625 
Q 15.71875 34.578125 15.71875 30.609375 
L 15.71875 0 
L 6.9375 0 
L 6.9375 41.546875 
Q 6.9375 43.21875 6.90625 45.046875 
Q 6.890625 46.875 6.828125 48.5 
Q 6.78125 50.140625 6.734375 51.3125 
Q 6.6875 52.484375 6.640625 52.828125 
L 14.9375 52.828125 
Q 14.984375 52.59375 15.03125 51.515625 
Q 15.09375 50.4375 15.15625 49.046875 
Q 15.234375 47.65625 15.28125 46.21875 
Q 15.328125 44.78125 15.328125 43.796875 
L 15.484375 43.796875 
Q 16.75 46.09375 18.265625 47.953125 
Q 19.78125 49.8125 21.78125 51.09375 
Q 23.78125 52.390625 26.359375 53.09375 
Q 28.953125 53.8125 32.375 53.8125 
Q 36.765625 53.8125 39.9375 52.734375 
Q 43.109375 51.65625 45.15625 49.40625 
Q 47.21875 47.171875 48.171875 43.625 
Q 49.125 40.09375 49.125 35.203125 
L 49.125 0 
z
" id="LiberationSans-6e"/>
      <path d="M 51.421875 26.46875 
Q 51.421875 12.59375 45.3125 5.796875 
Q 39.203125 -0.984375 27.59375 -0.984375 
Q 22.078125 -0.984375 17.71875 0.671875 
Q 13.375 2.34375 10.375 5.765625 
Q 7.375 9.1875 5.78125 14.328125 
Q 4.203125 19.484375 4.203125 26.46875 
Q 4.203125 53.8125 27.875 53.8125 
Q 34.03125 53.8125 38.5 52.09375 
Q 42.96875 50.390625 45.828125 46.96875 
Q 48.6875 43.5625 50.046875 38.421875 
Q 51.421875 33.296875 51.421875 26.46875 
M 42.1875 26.46875 
Q 42.1875 32.625 41.234375 36.625 
Q 40.28125 40.625 38.453125 43.015625 
Q 36.625 45.40625 33.984375 46.359375 
Q 31.34375 47.3125 28.03125 47.3125 
Q 24.65625 47.3125 21.9375 46.3125 
Q 19.234375 45.3125 17.328125 42.890625 
Q 15.4375 40.484375 14.421875 36.46875 
Q 13.421875 32.46875 13.421875 26.46875 
Q 13.421875 20.3125 14.5 16.28125 
Q 15.578125 12.25 17.453125 9.859375 
Q 19.34375 7.46875 21.90625 6.484375 
Q 24.46875 5.515625 27.484375 5.515625 
Q 30.859375 5.515625 33.59375 6.46875 
Q 36.328125 7.421875 38.234375 9.8125 
Q 40.140625 12.203125 41.15625 16.25 
Q 42.1875 20.3125 42.1875 26.46875 
" id="LiberationSans-6f"/>
     </defs>
     <g style="fill:#262626;" transform="translate(233.84109375 384.9896875)scale(0.11 -0.11)">
      <use xlink:href="#LiberationSans-6c"/>
      <use x="22.216796875" xlink:href="#LiberationSans-6f"/>
      <use x="77.83203125" xlink:href="#LiberationSans-67"/>
      <use x="133.447265625" xlink:href="#LiberationSans-31"/>
      <use x="189.0625" xlink:href="#LiberationSans-30"/>
      <use x="244.677734375" xlink:href="#LiberationSans-20"/>
      <use x="272.4609375" xlink:href="#LiberationSans-69"/>
      <use x="294.677734375" xlink:href="#LiberationSans-6e"/>
      <use x="350.29296875" xlink:href="#LiberationSans-63"/>
      <use x="400.29296875" xlink:href="#LiberationSans-6f"/>
      <use x="455.908203125" xlink:href="#LiberationSans-6d"/>
      <use x="539.208984375" xlink:href="#LiberationSans-65"/>
     </g>
    </g>
   </g>
   <g id="matplotlib.axis_2">
    <g id="ytick_1">
     <g id="line2d_22">
      <path clip-path="url(#p6140dc3359)" d="M 43.354062 355.69625 
L 489.754062 355.69625 
" style="fill:none;stroke:#ffffff;stroke-linecap:round;"/>
     </g>
     <g id="line2d_23"/>
     <g id="line2d_24"/>
     <g id="text_9">
      <!-- 0.0 -->
      <g style="fill:#808080;" transform="translate(22.4540625 358.2821875)scale(0.1 -0.1)">
       <use xlink:href="#LiberationSans-30"/>
       <use x="55.615234375" xlink:href="#LiberationSans-2e"/>
       <use x="83.3984375" xlink:href="#LiberationSans-30"/>
      </g>
     </g>
    </g>
    <g id="ytick_2">
     <g id="line2d_25">
      <path clip-path="url(#p6140dc3359)" d="M 43.354062 288.73625 
L 489.754062 288.73625 
" style="fill:none;stroke:#ffffff;stroke-linecap:round;"/>
     </g>
     <g id="line2d_26"/>
     <g id="line2d_27"/>
     <g id="text_10">
      <!-- 0.2 -->
      <g style="fill:#808080;" transform="translate(22.4540625 291.3221875)scale(0.1 -0.1)">
       <use xlink:href="#LiberationSans-30"/>
       <use x="55.615234375" xlink:href="#LiberationSans-2e"/>
       <use x="83.3984375" xlink:href="#LiberationSans-32"/>
      </g>
     </g>
    </g>
    <g id="ytick_3">
     <g id="line2d_28">
      <path clip-path="url(#p6140dc3359)" d="M 43.354062 221.77625 
L 489.754062 221.77625 
" style="fill:none;stroke:#ffffff;stroke-linecap:round;"/>
     </g>
     <g id="line2d_29"/>
     <g id="line2d_30"/>
     <g id="text_11">
      <!-- 0.4 -->
      <g style="fill:#808080;" transform="translate(22.4540625 224.3621875)scale(0.1 -0.1)">
       <use xlink:href="#LiberationSans-30"/>
       <use x="55.615234375" xlink:href="#LiberationSans-2e"/>
       <use x="83.3984375" xlink:href="#LiberationSans-34"/>
      </g>
     </g>
    </g>
    <g id="ytick_4">
     <g id="line2d_31">
      <path clip-path="url(#p6140dc3359)" d="M 43.354062 154.81625 
L 489.754062 154.81625 
" style="fill:none;stroke:#ffffff;stroke-linecap:round;"/>
     </g>
     <g id="line2d_32"/>
     <g id="line2d_33"/>
     <g id="text_12">
      <!-- 0.6 -->
      <defs>
       <path d="M 51.21875 22.515625 
Q 51.21875 17.328125 49.78125 13 
Q 48.34375 8.6875 45.53125 5.578125 
Q 42.71875 2.484375 38.5625 0.75 
Q 34.421875 -0.984375 29 -0.984375 
Q 23 -0.984375 18.5 1.3125 
Q 14.015625 3.609375 11.03125 7.921875 
Q 8.0625 12.25 6.5625 18.53125 
Q 5.078125 24.8125 5.078125 32.8125 
Q 5.078125 42 6.765625 48.921875 
Q 8.453125 55.859375 11.625 60.5 
Q 14.796875 65.140625 19.359375 67.484375 
Q 23.921875 69.828125 29.6875 69.828125 
Q 33.203125 69.828125 36.28125 69.09375 
Q 39.359375 68.359375 41.875 66.71875 
Q 44.390625 65.09375 46.28125 62.40625 
Q 48.1875 59.71875 49.3125 55.8125 
L 40.921875 54.296875 
Q 39.546875 58.734375 36.546875 60.71875 
Q 33.546875 62.703125 29.59375 62.703125 
Q 25.984375 62.703125 23.046875 60.984375 
Q 20.125 59.28125 18.0625 55.875 
Q 16.015625 52.484375 14.90625 47.359375 
Q 13.8125 42.234375 13.8125 35.40625 
Q 16.21875 39.84375 20.5625 42.15625 
Q 24.90625 44.484375 30.515625 44.484375 
Q 35.203125 44.484375 39.015625 42.96875 
Q 42.828125 41.453125 45.53125 38.59375 
Q 48.25 35.75 49.734375 31.671875 
Q 51.21875 27.59375 51.21875 22.515625 
M 42.28125 22.125 
Q 42.28125 25.6875 41.40625 28.5625 
Q 40.53125 31.453125 38.765625 33.46875 
Q 37.015625 35.5 34.421875 36.59375 
Q 31.84375 37.703125 28.421875 37.703125 
Q 26.03125 37.703125 23.578125 36.984375 
Q 21.140625 36.28125 19.15625 34.6875 
Q 17.1875 33.109375 15.9375 30.515625 
Q 14.703125 27.9375 14.703125 24.21875 
Q 14.703125 20.40625 15.671875 17.109375 
Q 16.65625 13.8125 18.484375 11.375 
Q 20.3125 8.9375 22.890625 7.515625 
Q 25.484375 6.109375 28.71875 6.109375 
Q 31.890625 6.109375 34.40625 7.203125 
Q 36.921875 8.296875 38.671875 10.375 
Q 40.4375 12.453125 41.359375 15.421875 
Q 42.28125 18.40625 42.28125 22.125 
" id="LiberationSans-36"/>
      </defs>
      <g style="fill:#808080;" transform="translate(22.4540625 157.4021875)scale(0.1 -0.1)">
       <use xlink:href="#LiberationSans-30"/>
       <use x="55.615234375" xlink:href="#LiberationSans-2e"/>
       <use x="83.3984375" xlink:href="#LiberationSans-36"/>
      </g>
     </g>
    </g>
    <g id="ytick_5">
     <g id="line2d_34">
      <path clip-path="url(#p6140dc3359)" d="M 43.354062 87.85625 
L 489.754062 87.85625 
" style="fill:none;stroke:#ffffff;stroke-linecap:round;"/>
     </g>
     <g id="line2d_35"/>
     <g id="line2d_36"/>
     <g id="text_13">
      <!-- 0.8 -->
      <defs>
       <path d="M 51.265625 19.1875 
Q 51.265625 14.796875 49.875 11.109375 
Q 48.484375 7.421875 45.625 4.734375 
Q 42.78125 2.046875 38.328125 0.53125 
Q 33.890625 -0.984375 27.828125 -0.984375 
Q 21.78125 -0.984375 17.359375 0.53125 
Q 12.9375 2.046875 10.03125 4.703125 
Q 7.125 7.375 5.734375 11.0625 
Q 4.34375 14.75 4.34375 19.09375 
Q 4.34375 22.859375 5.484375 25.78125 
Q 6.640625 28.71875 8.5625 30.828125 
Q 10.5 32.953125 12.96875 34.25 
Q 15.4375 35.546875 18.0625 35.984375 
L 18.0625 36.1875 
Q 15.1875 36.859375 12.90625 38.375 
Q 10.640625 39.890625 9.09375 42.015625 
Q 7.5625 44.140625 6.75 46.71875 
Q 5.953125 49.3125 5.953125 52.203125 
Q 5.953125 55.8125 7.34375 59 
Q 8.734375 62.203125 11.46875 64.625 
Q 14.203125 67.046875 18.25 68.4375 
Q 22.3125 69.828125 27.640625 69.828125 
Q 33.25 69.828125 37.375 68.40625 
Q 41.5 67 44.203125 64.578125 
Q 46.921875 62.15625 48.234375 58.9375 
Q 49.5625 55.71875 49.5625 52.09375 
Q 49.5625 49.265625 48.75 46.671875 
Q 47.953125 44.09375 46.40625 41.96875 
Q 44.875 39.84375 42.59375 38.34375 
Q 40.328125 36.859375 37.359375 36.28125 
L 37.359375 36.078125 
Q 40.328125 35.59375 42.859375 34.296875 
Q 45.40625 33.015625 47.265625 30.890625 
Q 49.125 28.765625 50.1875 25.828125 
Q 51.265625 22.90625 51.265625 19.1875 
M 40.4375 51.609375 
Q 40.4375 54.203125 39.765625 56.34375 
Q 39.109375 58.5 37.59375 60.03125 
Q 36.078125 61.578125 33.640625 62.421875 
Q 31.203125 63.28125 27.640625 63.28125 
Q 24.171875 63.28125 21.78125 62.421875 
Q 19.390625 61.578125 17.84375 60.03125 
Q 16.3125 58.5 15.625 56.34375 
Q 14.9375 54.203125 14.9375 51.609375 
Q 14.9375 49.5625 15.46875 47.40625 
Q 16.015625 45.265625 17.421875 43.5 
Q 18.84375 41.75 21.328125 40.625 
Q 23.828125 39.5 27.734375 39.5 
Q 31.890625 39.5 34.40625 40.625 
Q 36.921875 41.75 38.25 43.5 
Q 39.59375 45.265625 40.015625 47.40625 
Q 40.4375 49.5625 40.4375 51.609375 
M 42.140625 20.015625 
Q 42.140625 22.515625 41.453125 24.828125 
Q 40.765625 27.15625 39.109375 28.9375 
Q 37.453125 30.71875 34.640625 31.8125 
Q 31.84375 32.90625 27.640625 32.90625 
Q 23.78125 32.90625 21.0625 31.8125 
Q 18.359375 30.71875 16.671875 28.90625 
Q 14.984375 27.09375 14.203125 24.71875 
Q 13.421875 22.359375 13.421875 19.828125 
Q 13.421875 16.65625 14.203125 14.03125 
Q 14.984375 11.421875 16.6875 9.546875 
Q 18.40625 7.671875 21.1875 6.640625 
Q 23.96875 5.609375 27.9375 5.609375 
Q 31.9375 5.609375 34.671875 6.640625 
Q 37.40625 7.671875 39.0625 9.546875 
Q 40.71875 11.421875 41.421875 14.078125 
Q 42.140625 16.75 42.140625 20.015625 
" id="LiberationSans-38"/>
      </defs>
      <g style="fill:#808080;" transform="translate(22.4540625 90.4421875)scale(0.1 -0.1)">
       <use xlink:href="#LiberationSans-30"/>
       <use x="55.615234375" xlink:href="#LiberationSans-2e"/>
       <use x="83.3984375" xlink:href="#LiberationSans-38"/>
      </g>
     </g>
    </g>
    <g id="ytick_6">
     <g id="line2d_37">
      <path clip-path="url(#p6140dc3359)" d="M 43.354062 20.89625 
L 489.754062 20.89625 
" style="fill:none;stroke:#ffffff;stroke-linecap:round;"/>
     </g>
     <g id="line2d_38"/>
     <g id="line2d_39"/>
     <g id="text_14">
      <!-- 1.0 -->
      <g style="fill:#808080;" transform="translate(22.4540625 23.4821875)scale(0.1 -0.1)">
       <use xlink:href="#LiberationSans-31"/>
       <use x="55.615234375" xlink:href="#LiberationSans-2e"/>
       <use x="83.3984375" xlink:href="#LiberationSans-30"/>
      </g>
     </g>
    </g>
    <g id="text_15">
     <!-- CDF -->
     <defs>
      <path d="M 38.671875 62.203125 
Q 32.8125 62.203125 28.296875 60.25 
Q 23.78125 58.296875 20.71875 54.6875 
Q 17.671875 51.078125 16.109375 46 
Q 14.546875 40.921875 14.546875 34.71875 
Q 14.546875 28.515625 16.234375 23.359375 
Q 17.921875 18.21875 21.0625 14.5 
Q 24.21875 10.796875 28.78125 8.734375 
Q 33.34375 6.6875 39.0625 6.6875 
Q 43.0625 6.6875 46.359375 7.734375 
Q 49.65625 8.796875 52.3125 10.6875 
Q 54.984375 12.59375 57.078125 15.203125 
Q 59.1875 17.828125 60.796875 21 
L 68.40625 17.1875 
Q 66.546875 13.328125 63.8125 10 
Q 61.078125 6.6875 57.390625 4.25 
Q 53.71875 1.8125 49.046875 0.40625 
Q 44.390625 -0.984375 38.625 -0.984375 
Q 30.28125 -0.984375 24 1.671875 
Q 17.71875 4.34375 13.5 9.109375 
Q 9.28125 13.875 7.171875 20.40625 
Q 5.078125 26.953125 5.078125 34.71875 
Q 5.078125 42.78125 7.296875 49.265625 
Q 9.515625 55.765625 13.78125 60.328125 
Q 18.0625 64.890625 24.3125 67.359375 
Q 30.5625 69.828125 38.578125 69.828125 
Q 49.5625 69.828125 56.9375 65.53125 
Q 64.3125 61.234375 67.78125 52.78125 
L 58.9375 49.859375 
Q 57.953125 52.296875 56.296875 54.515625 
Q 54.640625 56.734375 52.140625 58.4375 
Q 49.65625 60.15625 46.3125 61.171875 
Q 42.96875 62.203125 38.671875 62.203125 
" id="LiberationSans-43"/>
      <path d="M 67.4375 35.109375 
Q 67.4375 26.515625 64.84375 19.9375 
Q 62.25 13.375 57.75 8.953125 
Q 53.265625 4.546875 47.140625 2.265625 
Q 41.015625 0 33.9375 0 
L 8.203125 0 
L 8.203125 68.796875 
L 30.953125 68.796875 
Q 38.921875 68.796875 45.625 66.8125 
Q 52.34375 64.84375 57.171875 60.71875 
Q 62.015625 56.59375 64.71875 50.234375 
Q 67.4375 43.890625 67.4375 35.109375 
M 58.0625 35.109375 
Q 58.0625 42.09375 56.046875 47.046875 
Q 54.046875 52 50.4375 55.171875 
Q 46.828125 58.34375 41.796875 59.828125 
Q 36.765625 61.328125 30.765625 61.328125 
L 17.53125 61.328125 
L 17.53125 7.46875 
L 32.859375 7.46875 
Q 38.28125 7.46875 42.890625 9.21875 
Q 47.515625 10.984375 50.875 14.453125 
Q 54.25 17.921875 56.15625 23.09375 
Q 58.0625 28.265625 58.0625 35.109375 
" id="LiberationSans-44"/>
      <path d="M 17.53125 61.1875 
L 17.53125 35.59375 
L 55.90625 35.59375 
L 55.90625 27.875 
L 17.53125 27.875 
L 17.53125 0 
L 8.203125 0 
L 8.203125 68.796875 
L 57.078125 68.796875 
L 57.078125 61.1875 
z
" id="LiberationSans-46"/>
     </defs>
     <g style="fill:#262626;" transform="translate(15.1715625 199.599609375)rotate(-90.0)scale(0.11 -0.11)">
      <use xlink:href="#LiberationSans-43"/>
      <use x="72.216796875" xlink:href="#LiberationSans-44"/>
      <use x="144.43359375" xlink:href="#LiberationSans-46"/>
     </g>
    </g>
   </g>
   <g id="line2d_40">
    <path clip-path="url(#p6140dc3359)" d="M 52.268168 52.216515 
L 52.268168 52.412109 
L 53.415092 52.412109 
L 53.415092 52.645559 
L 55.73404 52.645559 
L 55.73404 52.778058 
L 58.782472 52.778058 
L 58.782472 53.011509 
L 64.846525 53.11877 
L 64.846525 53.36484 
L 68.686645 53.36484 
L 68.686645 53.48472 
L 75.121455 53.585672 
L 75.121455 53.762337 
L 77.333105 53.762337 
L 77.333105 53.983169 
L 80.399736 53.983169 
L 80.399736 54.140906 
L 83.327412 54.140906 
L 83.327412 54.267096 
L 88.81259 54.374357 
L 88.81259 54.443761 
L 96.972358 54.551023 
L 96.972358 54.670903 
L 100.273714 54.765545 
L 100.273714 54.847568 
L 104.929564 54.910663 
L 104.929564 55.024234 
L 111.303371 55.055781 
L 111.303371 55.232447 
L 132.380736 55.339708 
L 132.380736 55.446969 
L 140.369043 55.535302 
L 140.369043 55.629944 
L 141.854695 55.629944 
L 141.854695 55.844466 
L 143.001618 55.844466 
L 143.001618 56.008513 
L 145.320567 56.008513 
L 145.320567 56.153631 
L 145.531134 56.153631 
L 145.531134 56.349225 
L 148.368999 56.349225 
L 148.368999 56.494343 
L 150.545064 56.494343 
L 150.545064 56.620532 
L 151.625354 56.620532 
L 151.625354 56.816126 
L 154.433051 56.816126 
L 154.433051 57.043268 
L 160.778516 57.125291 
L 160.778516 57.201005 
L 164.676725 57.201005 
L 164.676725 57.38398 
L 166.919632 57.38398 
L 166.919632 57.573264 
L 169.986263 57.573264 
L 169.986263 57.781477 
L 172.88641 57.781477 
L 172.88641 57.964452 
L 174.490851 57.964452 
L 174.490851 58.078023 
L 178.018757 58.078023 
L 178.018757 58.223141 
L 178.373829 58.223141 
L 178.373829 58.387187 
L 181.484628 58.494448 
L 181.508728 58.677423 
L 184.533061 58.778375 
L 184.533061 58.879327 
L 186.536597 58.879327 
L 186.536597 59.018135 
L 186.709125 59.018135 
L 186.709125 59.150634 
L 188.706609 59.150634 
L 188.706609 59.415633 
L 189.881411 59.415633 
L 189.881411 59.548132 
L 190.597113 59.548132 
L 190.597113 59.712178 
L 192.005168 59.712178 
L 192.005168 59.895153 
L 194.456957 59.964557 
L 194.53579 60.198008 
L 196.933089 60.261103 
L 196.933089 60.374674 
L 197.725325 60.475625 
L 197.725325 60.53872 
L 200.836321 60.589196 
L 200.872044 61.03086 
L 203.083694 61.087645 
L 203.083694 61.232763 
L 206.83781 61.340024 
L 206.83781 61.504071 
L 208.374323 61.605023 
L 208.374323 61.737522 
L 209.046538 61.737522 
L 209.046538 61.952044 
L 210.647238 61.952044 
L 210.693272 62.198114 
L 213.455745 62.24228 
L 213.455745 62.519897 
L 214.54873 62.627159 
L 214.54873 62.797515 
L 217.071062 62.892157 
L 217.071062 63.012037 
L 217.679674 63.012037 
L 217.679674 63.150845 
L 219.169862 63.245488 
L 219.169862 63.346439 
L 219.324391 63.346439 
L 219.324391 63.542033 
L 219.819076 63.542033 
L 219.819076 63.781794 
L 221.488811 63.882745 
L 221.488811 64.008935 
L 221.967263 64.008935 
L 221.967263 64.374885 
L 222.40382 64.374885 
L 222.40382 64.545241 
L 222.710211 64.545241 
L 222.710211 64.67143 
L 224.537243 64.721906 
L 224.537243 64.829167 
L 224.876829 64.829167 
L 224.876829 65.031071 
L 225.294228 65.031071 
L 225.294228 65.251903 
L 226.048496 65.251903 
L 226.145183 65.624162 
L 226.350164 65.624162 
L 226.350164 65.927017 
L 226.889641 66.021659 
L 226.889641 66.217253 
L 227.270548 66.217253 
L 227.270548 66.349752 
L 228.166303 66.349752 
L 228.166303 66.62737 
L 229.944183 66.728321 
L 230.046588 67.422364 
L 230.612567 67.422364 
L 230.691409 67.908194 
L 230.736419 67.908194 
L 230.781398 68.223668 
L 232.292337 68.223668 
L 232.292337 68.412953 
L 233.784852 68.513904 
L 233.784852 68.677951 
L 233.918841 68.677951 
L 233.918841 68.829379 
L 235.096635 68.93664 
L 235.096635 69.472946 
L 235.369439 69.472946 
L 235.369439 69.693777 
L 235.960916 69.693777 
L 235.960916 69.851514 
L 236.644628 69.851514 
L 236.644628 70.015561 
L 237.043758 70.084965 
L 237.043758 70.558176 
L 238.266624 70.558176 
L 238.266624 70.823175 
L 238.953739 70.823175 
L 239.052717 71.327933 
L 239.858672 71.327933 
L 239.858672 71.782216 
L 240.19964 71.782216 
L 240.19964 72.09769 
L 240.837754 72.09769 
L 240.837754 72.268046 
L 241.116157 72.268046 
L 241.192748 73.182921 
L 242.283818 73.182921 
L 242.283818 73.479466 
L 242.518589 73.479466 
L 242.518589 73.712917 
L 243.087876 73.712917 
L 243.087876 73.902201 
L 243.753432 73.984225 
L 243.753432 74.217675 
L 244.403099 74.217675 
L 244.403099 74.495293 
L 245.567021 74.495293 
L 245.567021 74.722434 
L 246.163367 74.722434 
L 246.181085 75.01898 
L 246.894574 75.01898 
L 246.93836 75.366001 
L 247.743086 75.366001 
L 247.743086 75.555285 
L 249.056772 75.555285 
L 249.056772 75.757189 
L 249.563093 75.757189 
L 249.613507 76.388137 
L 250.082156 76.388137 
L 250.082156 76.59004 
L 250.654963 76.59004 
L 250.654963 76.735158 
L 251.639214 76.735158 
L 251.639214 77.20837 
L 251.915381 77.20837 
L 251.915381 77.44813 
L 252.335485 77.44813 
L 252.335485 77.6942 
L 253.278786 77.6942 
L 253.278786 78.06015 
L 253.472927 78.06015 
L 253.472927 78.596455 
L 254.083233 78.596455 
L 254.083233 78.836216 
L 254.5518 78.836216 
L 254.61985 79.473473 
L 255.25604 79.473473 
L 255.25604 79.675377 
L 255.417473 79.675377 
L 255.478865 79.978232 
L 256.938799 79.978232 
L 256.938799 80.438824 
L 257.368562 80.438824 
L 257.368562 80.665965 
L 257.688092 80.665965 
L 257.688092 80.830012 
L 257.969159 80.830012 
L 257.969159 81.050844 
L 258.138686 81.050844 
L 258.138686 81.511436 
L 258.307769 81.511436 
L 258.307769 81.770124 
L 259.903123 81.770124 
L 259.987231 82.703928 
L 260.402585 82.703928 
L 260.402585 82.874284 
L 261.864325 82.874284 
L 261.864325 83.303328 
L 262.163296 83.303328 
L 262.163296 83.656659 
L 262.507346 83.656659 
L 262.534859 84.26237 
L 262.713414 84.26237 
L 262.713414 84.464273 
L 263.79474 84.464273 
L 263.79474 84.603082 
L 264.117654 84.603082 
L 264.117654 84.956412 
L 264.878169 84.956412 
L 264.878169 85.183554 
L 265.852338 85.183554 
L 265.852338 85.461171 
L 266.048027 85.461171 
L 266.113125 86.962827 
L 266.249618 86.962827 
L 266.249618 87.335087 
L 266.440873 87.335087 
L 266.440873 87.764132 
L 266.934218 87.764132 
L 266.934218 87.928178 
L 267.197083 87.928178 
L 267.197083 88.376151 
L 267.587796 88.376151 
L 267.587796 88.75472 
L 268.162382 88.75472 
L 268.162382 89.114361 
L 269.651615 89.114361 
L 269.651615 89.259479 
L 269.903677 89.259479 
L 269.906745 89.884117 
L 270.087492 89.884117 
L 270.087492 90.344709 
L 270.702519 90.344709 
L 270.702519 90.527684 
L 271.263701 90.527684 
L 271.263701 91.013514 
L 271.682904 91.013514 
L 271.682904 91.246965 
L 271.962851 91.246965 
L 271.962851 91.493035 
L 272.389368 91.493035 
L 272.389368 91.758033 
L 272.955177 91.758033 
L 272.955177 92.168149 
L 274.125335 92.256482 
L 274.125335 92.553028 
L 274.377747 92.553028 
L 274.377747 92.849573 
L 275.131242 92.849573 
L 275.131242 93.120881 
L 275.298675 93.120881 
L 275.298675 93.360641 
L 275.580282 93.360641 
L 275.580282 93.594092 
L 276.290094 93.594092 
L 276.290094 94.180874 
L 277.047155 94.180874 
L 277.047155 94.540514 
L 277.236412 94.540514 
L 277.236412 94.931702 
L 277.359543 94.931702 
L 277.414193 95.556341 
L 278.383336 95.556341 
L 278.383336 95.953838 
L 278.53518 95.953838 
L 278.53518 96.509072 
L 278.717458 96.509072 
L 278.824441 97.430257 
L 279.027222 97.430257 
L 279.027222 98.288346 
L 279.947703 98.288346 
L 279.947703 98.521797 
L 280.702284 98.521797 
L 280.702284 98.856199 
L 281.432758 98.856199 
L 281.432758 99.127507 
L 281.617293 99.127507 
L 281.617293 99.815241 
L 282.355268 99.815241 
L 282.355268 100.168572 
L 282.869392 100.263214 
L 282.869392 100.55345 
L 283.742049 100.55345 
L 283.750716 101.316897 
L 284.510149 101.316897 
L 284.510149 102.099273 
L 285.356241 102.099273 
L 285.356241 102.395818 
L 285.904631 102.395818 
L 285.926781 103.159266 
L 286.105502 103.159266 
L 286.105502 103.550453 
L 286.291468 103.550453 
L 286.291468 103.878547 
L 286.484021 103.878547 
L 286.484021 104.276044 
L 287.077081 104.276044 
L 287.077081 104.572589 
L 287.344652 104.572589 
L 287.344652 104.913301 
L 287.50373 104.913301 
L 287.50373 105.329727 
L 287.630944 105.329727 
L 287.630944 105.645201 
L 289.196362 105.645201 
L 289.255513 106.623171 
L 289.618336 106.623171 
L 289.618336 106.919716 
L 289.821532 106.919716 
L 289.821532 107.689473 
L 289.949893 107.689473 
L 289.997119 108.402445 
L 291.503614 108.402445 
L 291.503614 108.995536 
L 291.718491 108.995536 
L 291.731623 109.683269 
L 292.998325 109.683269 
L 292.998325 109.891482 
L 293.138739 109.891482 
L 293.138739 110.326836 
L 293.603885 110.326836 
L 293.667634 111.001951 
L 294.360559 111.001951 
L 294.360559 111.248021 
L 294.572441 111.248021 
L 294.582912 112.541464 
L 295.17439 112.541464 
L 295.17439 112.819081 
L 295.319994 112.819081 
L 295.319994 113.349078 
L 295.719364 113.349078 
L 295.719364 113.771813 
L 295.851941 113.771813 
L 295.851941 114.282881 
L 296.151037 114.282881 
L 296.151037 114.54157 
L 297.478095 114.54157 
L 297.478095 115.178827 
L 298.038313 115.178827 
L 298.139471 116.541675 
L 298.16325 116.541675 
L 298.16325 117.052743 
L 298.864738 117.052743 
L 298.864738 117.380836 
L 299.068238 117.380836 
L 299.072146 118.459758 
L 300.049303 118.459758 
L 300.049303 119.071777 
L 300.325799 119.071777 
L 300.325799 119.709035 
L 300.471251 119.709035 
L 300.471251 120.119151 
L 301.086745 120.119151 
L 301.086745 120.516648 
L 301.499173 120.516648 
L 301.499173 120.98355 
L 301.760177 120.98355 
L 301.760177 121.59557 
L 302.299491 121.59557 
L 302.299491 122.188661 
L 302.514703 122.188661 
L 302.514703 122.579849 
L 302.907101 122.579849 
L 302.965066 123.747103 
L 303.26281 123.747103 
L 303.26281 124.100434 
L 303.61293 124.100434 
L 303.61293 124.611502 
L 305.226049 124.611502 
L 305.226049 124.977452 
L 305.380385 124.977452 
L 305.398101 125.829232 
L 306.106296 125.829232 
L 306.151833 127.173151 
L 306.570671 127.173151 
L 306.570671 127.526482 
L 307.159417 127.526482 
L 307.159417 128.460285 
L 307.386551 128.460285 
L 307.386551 128.832545 
L 308.273634 128.832545 
L 308.274481 130.043965 
L 308.779928 130.043965 
L 308.820261 130.914673 
L 309.298964 130.914673 
L 309.298964 131.476217 
L 309.870089 131.476217 
L 309.870089 131.873715 
L 310.450546 131.873715 
L 310.450546 132.29014 
L 310.648867 132.29014 
L 310.648867 132.77597 
L 311.000665 132.77597 
L 311.000665 133.066206 
L 311.130475 133.066206 
L 311.234137 134.252389 
L 311.266497 134.252389 
L 311.266497 134.681434 
L 311.547347 134.681434 
L 311.547347 135.135716 
L 311.762806 135.135716 
L 311.762806 135.57107 
L 312.38106 135.57107 
L 312.38106 136.321899 
L 312.493847 136.321899 
L 312.493847 137.236774 
L 313.295138 137.236774 
L 313.295138 137.810936 
L 313.486104 137.810936 
L 313.486104 138.107482 
L 313.760605 138.107482 
L 313.760605 138.687954 
L 314.346246 138.687954 
L 314.346246 139.438782 
L 314.466435 139.438782 
L 314.466435 139.968779 
L 314.626339 139.968779 
L 314.700008 141.009843 
L 315.36535 141.009843 
L 315.36535 141.388412 
L 316.583525 141.388412 
L 316.583525 141.956265 
L 316.901565 141.956265 
L 316.901565 142.347453 
L 317.365408 142.347453 
L 317.386011 143.2434 
L 317.518306 143.2434 
L 317.518306 143.937443 
L 317.74844 143.937443 
L 317.74844 144.423273 
L 318.190282 144.423273 
L 318.190282 144.675652 
L 319.116596 144.675652 
L 319.168148 146.234094 
L 319.616059 146.234094 
L 319.635957 147.49599 
L 319.924505 147.49599 
L 319.924505 148.070153 
L 320.516693 148.070153 
L 320.516693 148.391936 
L 320.673511 148.391936 
L 320.673511 148.675863 
L 321.746957 148.675863 
L 321.746957 148.95979 
L 321.928259 148.95979 
L 322.029676 150.1649 
L 322.716205 150.1649 
L 322.716205 150.764301 
L 323.010911 150.764301 
L 323.010911 151.14287 
L 323.176599 151.14287 
L 323.176599 152.000959 
L 323.54551 152.000959 
L 323.54551 152.688693 
L 323.820485 152.688693 
L 323.820485 153.982137 
L 324.088989 153.982137 
L 324.088989 154.436419 
L 324.575296 154.436419 
L 324.575296 155.117843 
L 325.068424 155.117843 
L 325.068424 155.818196 
L 325.2615 155.818196 
L 325.2615 156.266169 
L 325.461793 156.266169 
L 325.495548 157.673183 
L 325.607072 157.673183 
L 325.607072 158.44294 
L 326.148976 158.44294 
L 326.148976 158.884603 
L 326.612427 158.884603 
L 326.612427 159.389362 
L 326.823843 159.389362 
L 326.823843 160.121262 
L 327.146001 160.121262 
L 327.204173 161.187564 
L 327.378376 161.187564 
L 327.378376 161.679704 
L 327.662655 161.679704 
L 327.662655 162.127677 
L 328.54398 162.127677 
L 328.54398 162.746006 
L 328.863857 162.746006 
L 328.863857 163.143503 
L 329.902657 163.143503 
L 329.91478 164.418018 
L 330.149504 164.418018 
L 330.149504 164.897539 
L 330.720045 164.897539 
L 330.720045 165.503249 
L 331.099014 165.503249 
L 331.175136 166.203602 
L 331.277284 166.203602 
L 331.277284 166.985977 
L 332.296993 166.985977 
L 332.296993 167.762043 
L 332.424208 167.762043 
L 332.424208 168.380373 
L 332.544189 168.380373 
L 332.544189 168.689537 
L 332.795081 168.689537 
L 332.795081 169.541317 
L 333.337659 169.541317 
L 333.337659 169.964052 
L 333.590075 169.964052 
L 333.590075 170.815832 
L 334.048777 170.815832 
L 334.048777 171.730707 
L 334.237245 171.730707 
L 334.237245 172.121895 
L 334.393506 172.121895 
L 334.393506 172.588797 
L 334.511019 172.588797 
L 334.614795 174.475331 
L 334.743156 174.475331 
L 334.743156 175.074732 
L 336.257332 175.074732 
L 336.296877 176.816149 
L 336.625481 176.816149 
L 336.625481 177.182099 
L 336.952422 177.182099 
L 336.952422 177.604834 
L 337.791588 177.604834 
L 337.791588 178.134831 
L 337.964115 178.134831 
L 338.034707 179.699582 
L 338.2865 179.699582 
L 338.395022 180.791122 
L 338.458774 180.791122 
L 338.458774 181.276952 
L 339.162227 181.276952 
L 339.262997 182.078256 
L 339.37827 182.078256 
L 339.37827 183.201344 
L 339.967653 183.201344 
L 339.967653 183.743959 
L 340.9443 183.743959 
L 340.9443 184.280265 
L 341.424862 184.280265 
L 341.424862 185.188831 
L 341.791022 185.188831 
L 341.791022 185.403353 
L 342.269356 185.403353 
L 342.269356 186.614773 
L 342.598908 186.614773 
L 342.598908 187.106913 
L 343.059454 187.106913 
L 343.059454 188.457142 
L 343.863455 188.457142 
L 343.867363 190.413081 
L 344.140272 190.413081 
L 344.206377 191.857952 
L 344.713515 191.857952 
L 344.713515 192.425805 
L 344.844491 192.425805 
L 344.844491 193.498417 
L 345.506845 193.498417 
L 345.506845 194.009485 
L 346.450291 194.009485 
L 346.557189 196.179947 
L 347.092754 196.179947 
L 347.092754 197.403986 
L 347.250523 197.403986 
L 347.250523 198.060172 
L 347.706807 198.060172 
L 347.760168 199.214807 
L 348.375229 199.214807 
L 348.375229 201.107652 
L 348.613453 201.107652 
L 348.613453 201.643957 
L 348.830905 201.643957 
L 348.830905 202.312762 
L 349.573758 202.312762 
L 349.573758 203.221328 
L 349.786225 203.221328 
L 349.878849 203.896442 
L 350.173648 203.896442 
L 350.191364 205.618931 
L 350.897807 205.618931 
L 350.932839 206.975469 
L 351.749823 206.975469 
L 351.749823 207.871415 
L 351.902672 207.871415 
L 351.902672 208.338317 
L 353.065203 208.338317 
L 353.065203 209.663308 
L 353.526105 209.663308 
L 353.615204 213.083047 
L 354.092228 213.083047 
L 354.092228 214.092564 
L 354.438162 214.092564 
L 354.438162 214.62256 
L 354.6617 214.62256 
L 354.6617 215.367079 
L 355.64595 215.367079 
L 355.64595 217.815158 
L 355.92536 217.815158 
L 356.0274 219.796335 
L 356.340611 219.796335 
L 356.340611 220.856328 
L 357.066117 220.856328 
L 357.174323 222.433698 
L 357.352151 222.433698 
L 357.352151 223.235002 
L 358.078995 223.235002 
L 358.086834 224.698802 
L 358.555425 224.698802 
L 358.555425 225.285583 
L 359.259698 225.285583 
L 359.259698 226.017483 
L 359.421138 226.017483 
L 359.493272 228.541276 
L 359.623521 228.541276 
L 359.623521 230.509834 
L 360.782601 230.509834 
L 360.782601 231.16602 
L 361.693346 231.16602 
L 361.727436 232.598272 
L 361.974419 232.598272 
L 361.974419 233.323862 
L 362.313038 233.323862 
L 362.313038 234.333379 
L 362.541704 234.333379 
L 362.541704 235.223016 
L 363.909859 235.223016 
L 363.909859 235.898131 
L 364.410743 235.898131 
L 364.410743 236.497531 
L 364.717769 236.497531 
L 364.717769 237.355621 
L 365.873841 237.355621 
L 365.873841 238.693231 
L 366.167784 238.693231 
L 366.167784 239.330489 
L 366.600711 239.330489 
L 366.600711 239.866794 
L 366.720151 239.866794 
L 366.720151 240.611313 
L 366.999354 240.611313 
L 366.999354 242.169755 
L 367.802826 242.169755 
L 367.802826 242.71237 
L 368.123049 242.71237 
L 368.123049 244.333907 
L 368.613749 244.333907 
L 368.613749 246.409726 
L 368.882253 246.409726 
L 368.882253 247.154245 
L 369.261833 247.154245 
L 369.261833 248.756853 
L 369.535543 248.756853 
L 369.535543 250.043988 
L 370.056066 250.043988 
L 370.11856 252.044093 
L 370.408756 252.044093 
L 370.408756 253.438488 
L 370.940955 253.438488 
L 370.975637 254.548957 
L 371.20254 254.548957 
L 371.20254 256.126327 
L 372.164075 256.126327 
L 372.164075 256.927632 
L 372.455919 256.927632 
L 372.455919 257.609056 
L 372.727705 257.609056 
L 372.727705 258.536549 
L 373.354574 258.536549 
L 373.354574 259.091784 
L 373.658352 259.091784 
L 373.658352 259.659637 
L 374.095452 259.659637 
L 374.095452 261.5651 
L 374.688646 261.5651 
L 374.688646 262.208667 
L 374.94156 262.208667 
L 374.94156 262.921639 
L 375.270437 262.921639 
L 375.270437 264.151988 
L 375.692029 264.151988 
L 375.776137 266.07007 
L 375.879185 266.07007 
L 375.968399 268.051247 
L 377.952202 268.051247 
L 377.952202 269.319453 
L 378.129773 269.319453 
L 378.129773 270.038733 
L 378.84204 270.038733 
L 378.84204 271.395272 
L 379.06451 271.395272 
L 379.06451 271.969435 
L 379.303154 271.969435 
L 379.303154 272.556216 
L 379.58477 272.556216 
L 379.58477 273.477401 
L 381.091239 273.477401 
L 381.091239 274.669893 
L 381.368467 274.669893 
L 381.368467 275.988574 
L 381.847787 275.988574 
L 381.877085 278.752127 
L 382.229779 278.752127 
L 382.229779 280.077118 
L 382.723124 280.077118 
L 382.723124 280.758542 
L 383.376702 280.758542 
L 383.376702 281.831154 
L 384.170486 281.831154 
L 384.170486 283.257097 
L 385.440521 283.257097 
L 385.440521 284.058401 
L 385.690538 284.058401 
L 385.695651 285.673628 
L 386.251591 285.673628 
L 386.35998 286.967071 
L 387.062619 286.967071 
L 387.062619 288.399324 
L 387.749776 288.399324 
L 387.749776 289.162771 
L 388.176306 289.162771 
L 388.176306 289.762172 
L 388.659649 289.762172 
L 388.744083 291.276447 
L 389.507743 291.276447 
L 389.507743 292.424773 
L 389.912326 292.424773 
L 389.912326 293.289172 
L 390.920148 293.289172 
L 390.920148 294.103095 
L 391.085699 294.103095 
L 391.085699 294.702495 
L 391.511401 294.702495 
L 391.511401 295.383919 
L 392.043787 295.383919 
L 392.076221 297.768903 
L 392.553432 297.768903 
L 392.553432 298.305209 
L 394.324981 298.305209 
L 394.324981 299.604962 
L 394.661432 299.604962 
L 394.672112 301.239118 
L 394.816128 301.239118 
L 394.816128 303.024701 
L 395.69107 303.024701 
L 395.69107 303.52946 
L 395.808355 303.52946 
L 395.808355 304.570524 
L 397.405346 304.570524 
L 397.405346 305.800873 
L 397.608921 305.800873 
L 397.608921 306.44444 
L 398.127303 306.44444 
L 398.127303 307.075388 
L 398.387465 307.075388 
L 398.408467 308.734782 
L 398.659135 308.734782 
L 398.659135 309.189064 
L 400.297423 309.189064 
L 400.297423 310.33108 
L 400.717813 310.33108 
L 400.717813 310.804291 
L 401.144342 310.804291 
L 401.175736 312.066188 
L 401.894408 312.066188 
L 401.894408 312.741302 
L 402.872259 312.741302 
L 402.880097 315.019025 
L 403.3518 315.019025 
L 403.3518 315.757234 
L 404.053731 315.757234 
L 404.053731 316.116875 
L 405.044419 316.116875 
L 405.044419 316.987583 
L 405.787524 316.987583 
L 405.787524 317.530198 
L 406.443601 317.530198 
L 406.443601 318.318883 
L 407.247847 318.318883 
L 407.293252 320.520892 
L 407.590524 320.520892 
L 407.590524 321.113984 
L 409.064549 321.113984 
L 409.064549 322.028858 
L 409.909473 322.028858 
L 409.909473 322.451594 
L 411.090264 322.451594 
L 411.090264 322.868019 
L 411.393974 322.868019 
L 411.393974 323.997417 
L 412.957905 323.997417 
L 412.957905 324.432771 
L 413.575954 324.432771 
L 413.575954 324.817649 
L 414.173671 324.817649 
L 414.173671 325.600025 
L 415.13397 325.600025 
L 415.13397 326.104783 
L 415.7689 326.104783 
L 415.7689 327.164776 
L 416.405283 327.164776 
L 416.405283 327.776796 
L 417.475958 327.776796 
L 417.552207 328.798932 
L 419.029284 328.798932 
L 419.029284 329.814758 
L 419.725161 329.814758 
L 419.757767 331.209154 
L 419.871155 331.209154 
L 419.871155 331.486771 
L 420.572381 331.486771 
L 420.572381 332.521526 
L 421.640652 332.521526 
L 421.640652 333.266044 
L 422.840787 333.266044 
L 422.919587 334.382823 
L 423.043059 334.382823 
L 423.043059 335.184127 
L 423.440582 335.184127 
L 423.440582 335.701504 
L 423.586963 335.701504 
L 423.586963 336.72364 
L 424.846172 336.72364 
L 424.846172 337.802561 
L 425.034485 337.802561 
L 425.095652 338.465057 
L 425.454259 338.465057 
L 425.454259 338.963506 
L 427.918266 338.963506 
L 427.967196 342.698719 
L 428.33035 342.698719 
L 428.33035 343.317048 
L 428.992013 343.317048 
L 428.992013 343.878592 
L 429.574408 343.878592 
L 429.574408 344.87549 
L 430.345592 344.87549 
L 430.345592 345.317153 
L 440.774967 345.317153 
L 440.774967 345.695722 
L 441.035641 345.695722 
L 441.035641 346.541193 
L 442.008511 346.541193 
L 442.008511 347.418211 
L 442.805404 347.418211 
L 442.805404 348.143801 
L 445.806634 348.143801 
L 445.806634 348.850463 
L 446.0262 348.850463 
L 446.0262 350.137597 
L 446.671354 350.137597 
L 446.671354 350.34581 
L 447.261267 350.34581 
L 447.261267 351.380565 
L 448.269055 351.380565 
L 448.269055 352.465796 
L 451.74719 352.465796 
L 451.74719 353.241862 
L 452.713058 353.241862 
L 452.713058 354.573162 
L 452.874703 354.573162 
L 452.874703 355.462799 
L 453.477043 355.462799 
L 453.477043 355.69625 
L 453.477043 355.69625 
" style="fill:none;opacity:0.7;stroke:#2166ac;stroke-linecap:round;stroke-width:3.0;"/>
   </g>
   <g id="patch_3">
    <path d="M 43.354062 355.69625 
L 489.754062 355.69625 
" style="fill:none;"/>
   </g>
   <g id="patch_4">
    <path d="M 43.354062 355.69625 
L 43.354062 20.89625 
" style="fill:none;"/>
   </g>
   <g id="patch_5">
    <path d="M 489.754062 355.69625 
L 489.754062 20.89625 
" style="fill:none;"/>
   </g>
   <g id="patch_6">
    <path d="M 43.354062 20.89625 
L 489.754062 20.89625 
" style="fill:none;"/>
   </g>
   <g id="text_16">
    <!-- CDF of log10 Income -->
    <defs>
     <path d="M 9.234375 0 
L 9.234375 68.796875 
L 18.5625 68.796875 
L 18.5625 0 
z
" id="LiberationSans-49"/>
     <path d="M 17.625 46.4375 
L 17.625 0 
L 8.84375 0 
L 8.84375 46.4375 
L 1.421875 46.4375 
L 1.421875 52.828125 
L 8.84375 52.828125 
L 8.84375 58.796875 
Q 8.84375 61.671875 9.375 64.140625 
Q 9.90625 66.609375 11.34375 68.4375 
Q 12.796875 70.265625 15.28125 71.3125 
Q 17.78125 72.359375 21.734375 72.359375 
Q 23.296875 72.359375 24.96875 72.21875 
Q 26.65625 72.078125 27.9375 71.78125 
L 27.9375 65.09375 
Q 27.09375 65.234375 26 65.359375 
Q 24.90625 65.484375 24.03125 65.484375 
Q 22.078125 65.484375 20.828125 64.9375 
Q 19.578125 64.40625 18.875 63.40625 
Q 18.171875 62.40625 17.890625 60.9375 
Q 17.625 59.46875 17.625 57.5625 
L 17.625 52.828125 
L 27.9375 52.828125 
L 27.9375 46.4375 
z
" id="LiberationSans-66"/>
    </defs>
    <g style="fill:#262626;" transform="translate(209.8653125 15.89625)scale(0.12 -0.12)">
     <use xlink:href="#LiberationSans-43"/>
     <use x="72.216796875" xlink:href="#LiberationSans-44"/>
     <use x="144.43359375" xlink:href="#LiberationSans-46"/>
     <use x="205.517578125" xlink:href="#LiberationSans-20"/>
     <use x="233.30078125" xlink:href="#LiberationSans-6f"/>
     <use x="288.916015625" xlink:href="#LiberationSans-66"/>
     <use x="316.69921875" xlink:href="#LiberationSans-20"/>
     <use x="344.482421875" xlink:href="#LiberationSans-6c"/>
     <use x="366.69921875" xlink:href="#LiberationSans-6f"/>
     <use x="422.314453125" xlink:href="#LiberationSans-67"/>
     <use x="477.9296875" xlink:href="#LiberationSans-31"/>
     <use x="533.544921875" xlink:href="#LiberationSans-30"/>
     <use x="589.16015625" xlink:href="#LiberationSans-20"/>
     <use x="616.943359375" xlink:href="#LiberationSans-49"/>
     <use x="644.7265625" xlink:href="#LiberationSans-6e"/>
     <use x="700.341796875" xlink:href="#LiberationSans-63"/>
     <use x="750.341796875" xlink:href="#LiberationSans-6f"/>
     <use x="805.95703125" xlink:href="#LiberationSans-6d"/>
     <use x="889.2578125" xlink:href="#LiberationSans-65"/>
    </g>
   </g>
  </g>
 </g>
 <defs>
  <clipPath id="p6140dc3359">
   <rect height="334.8" width="446.4" x="43.3540625" y="20.89625"/>
  </clipPath>
 </defs>
</svg>
