<?xml version="1.0" encoding="utf-8" standalone="no"?>
<!DOCTYPE svg PUBLIC "-//W3C//DTD SVG 1.1//EN"
  "http://www.w3.org/Graphics/SVG/1.1/DTD/svg11.dtd">
<!-- Created with matplotlib (http://matplotlib.org/) -->
<svg height="366pt" version="1.1" viewBox="0 0 503 366" width="503pt" xmlns="http://www.w3.org/2000/svg" xmlns:xlink="http://www.w3.org/1999/xlink">
 <defs>
  <style type="text/css">
*{stroke-linecap:butt;stroke-linejoin:round;stroke-miterlimit:100000;}
  </style>
 </defs>
 <g id="figure_1">
  <g id="patch_1">
   <path d="M 0 366.572187 
L 503.904062 366.572187 
L 503.904062 0 
L 0 0 
z
" style="fill:#ffffff;"/>
  </g>
  <g id="axes_1">
   <g id="patch_2">
    <path d="M 43.354062 327.79625 
L 489.754062 327.79625 
L 489.754062 20.89625 
L 43.354062 20.89625 
z
" style="fill:#eaeaf2;"/>
   </g>
   <g id="matplotlib.axis_1">
    <g id="xtick_1">
     <g id="line2d_1">
      <path clip-path="url(#p21b3c24e62)" d="M 43.354062 327.79625 
L 43.354062 20.89625 
" style="fill:none;stroke:#ffffff;stroke-linecap:round;"/>
     </g>
     <g id="line2d_2"/>
     <g id="line2d_3"/>
     <g id="text_1">
      <!-- 2.5 -->
      <defs>
       <path d="M 5.03125 0 
L 5.03125 6.203125 
Q 7.515625 11.921875 11.109375 16.28125 
Q 14.703125 20.65625 18.65625 24.1875 
Q 22.609375 27.734375 26.484375 30.765625 
Q 30.375 33.796875 33.5 36.8125 
Q 36.625 39.84375 38.546875 43.15625 
Q 40.484375 46.484375 40.484375 50.6875 
Q 40.484375 53.609375 39.59375 55.828125 
Q 38.71875 58.0625 37.0625 59.5625 
Q 35.40625 61.078125 33.078125 61.828125 
Q 30.765625 62.59375 27.9375 62.59375 
Q 25.296875 62.59375 22.96875 61.859375 
Q 20.65625 61.140625 18.84375 59.671875 
Q 17.046875 58.203125 15.890625 56.03125 
Q 14.75 53.859375 14.40625 50.984375 
L 5.421875 51.8125 
Q 5.859375 55.515625 7.46875 58.78125 
Q 9.078125 62.0625 11.90625 64.53125 
Q 14.75 67 18.71875 68.40625 
Q 22.703125 69.828125 27.9375 69.828125 
Q 33.0625 69.828125 37.0625 68.609375 
Q 41.0625 67.390625 43.8125 64.984375 
Q 46.578125 62.59375 48.046875 59.078125 
Q 49.515625 55.5625 49.515625 50.984375 
Q 49.515625 47.515625 48.265625 44.390625 
Q 47.015625 41.265625 44.9375 38.421875 
Q 42.875 35.59375 40.140625 32.953125 
Q 37.40625 30.328125 34.421875 27.8125 
Q 31.453125 25.296875 28.421875 22.828125 
Q 25.390625 20.359375 22.71875 17.859375 
Q 20.0625 15.375 17.96875 12.8125 
Q 15.875 10.25 14.703125 7.46875 
L 50.59375 7.46875 
L 50.59375 0 
z
" id="LiberationSans-32"/>
       <path d="M 51.421875 22.40625 
Q 51.421875 17.234375 49.859375 12.9375 
Q 48.296875 8.640625 45.21875 5.53125 
Q 42.140625 2.4375 37.578125 0.71875 
Q 33.015625 -0.984375 27 -0.984375 
Q 21.578125 -0.984375 17.546875 0.28125 
Q 13.53125 1.5625 10.734375 3.78125 
Q 7.953125 6 6.3125 8.984375 
Q 4.6875 11.96875 4 15.375 
L 12.890625 16.40625 
Q 13.421875 14.453125 14.390625 12.625 
Q 15.375 10.796875 17.0625 9.34375 
Q 18.75 7.90625 21.21875 7.046875 
Q 23.6875 6.203125 27.203125 6.203125 
Q 30.609375 6.203125 33.390625 7.25 
Q 36.1875 8.296875 38.15625 10.34375 
Q 40.140625 12.40625 41.203125 15.375 
Q 42.28125 18.359375 42.28125 22.21875 
Q 42.28125 25.390625 41.25 28.046875 
Q 40.234375 30.71875 38.328125 32.640625 
Q 36.421875 34.578125 33.65625 35.640625 
Q 30.90625 36.71875 27.390625 36.71875 
Q 25.203125 36.71875 23.34375 36.328125 
Q 21.484375 35.9375 19.890625 35.25 
Q 18.3125 34.578125 17.015625 33.671875 
Q 15.71875 32.765625 14.59375 31.78125 
L 6 31.78125 
L 8.296875 68.796875 
L 47.40625 68.796875 
L 47.40625 61.328125 
L 16.3125 61.328125 
L 14.984375 39.5 
Q 17.328125 41.3125 20.84375 42.59375 
Q 24.359375 43.890625 29.203125 43.890625 
Q 34.328125 43.890625 38.421875 42.328125 
Q 42.53125 40.765625 45.40625 37.90625 
Q 48.296875 35.0625 49.859375 31.109375 
Q 51.421875 27.15625 51.421875 22.40625 
" id="LiberationSans-35"/>
       <path d="M 9.125 0 
L 9.125 10.6875 
L 18.65625 10.6875 
L 18.65625 0 
z
" id="LiberationSans-2e"/>
      </defs>
      <g style="fill:#808080;" transform="translate(36.4040625 342.043125)scale(0.1 -0.1)">
       <use xlink:href="#LiberationSans-32"/>
       <use x="55.615234375" xlink:href="#LiberationSans-2e"/>
       <use x="83.3984375" xlink:href="#LiberationSans-35"/>
      </g>
     </g>
    </g>
    <g id="xtick_2">
     <g id="line2d_4">
      <path clip-path="url(#p21b3c24e62)" d="M 117.754063 327.79625 
L 117.754063 20.89625 
" style="fill:none;stroke:#ffffff;stroke-linecap:round;"/>
     </g>
     <g id="line2d_5"/>
     <g id="line2d_6"/>
     <g id="text_2">
      <!-- 3.0 -->
      <defs>
       <path d="M 51.21875 19 
Q 51.21875 14.265625 49.671875 10.546875 
Q 48.140625 6.84375 45.1875 4.265625 
Q 42.234375 1.703125 37.859375 0.359375 
Q 33.5 -0.984375 27.875 -0.984375 
Q 21.484375 -0.984375 17.109375 0.609375 
Q 12.75 2.203125 9.90625 4.8125 
Q 7.078125 7.421875 5.65625 10.765625 
Q 4.25 14.109375 3.8125 17.671875 
L 12.890625 18.5 
Q 13.28125 15.765625 14.328125 13.515625 
Q 15.375 11.28125 17.1875 9.671875 
Q 19 8.0625 21.625 7.171875 
Q 24.265625 6.296875 27.875 6.296875 
Q 34.515625 6.296875 38.296875 9.5625 
Q 42.09375 12.84375 42.09375 19.28125 
Q 42.09375 23.09375 40.40625 25.40625 
Q 38.71875 27.734375 36.203125 29.03125 
Q 33.6875 30.328125 30.734375 30.765625 
Q 27.78125 31.203125 25.296875 31.203125 
L 20.3125 31.203125 
L 20.3125 38.8125 
L 25.09375 38.8125 
Q 27.59375 38.8125 30.265625 39.328125 
Q 32.953125 39.84375 35.171875 41.1875 
Q 37.40625 42.53125 38.84375 44.828125 
Q 40.28125 47.125 40.28125 50.6875 
Q 40.28125 56.203125 37.03125 59.390625 
Q 33.796875 62.59375 27.390625 62.59375 
Q 21.578125 62.59375 17.984375 59.609375 
Q 14.40625 56.640625 13.8125 51.21875 
L 4.984375 51.90625 
Q 5.515625 56.453125 7.46875 59.8125 
Q 9.421875 63.1875 12.421875 65.40625 
Q 15.4375 67.625 19.28125 68.71875 
Q 23.140625 69.828125 27.484375 69.828125 
Q 33.25 69.828125 37.390625 68.375 
Q 41.546875 66.9375 44.1875 64.46875 
Q 46.828125 62.015625 48.0625 58.6875 
Q 49.3125 55.375 49.3125 51.609375 
Q 49.3125 48.578125 48.484375 45.9375 
Q 47.65625 43.3125 45.890625 41.203125 
Q 44.140625 39.109375 41.421875 37.59375 
Q 38.71875 36.078125 34.90625 35.296875 
L 34.90625 35.109375 
Q 39.0625 34.671875 42.140625 33.21875 
Q 45.21875 31.78125 47.21875 29.625 
Q 49.21875 27.484375 50.21875 24.75 
Q 51.21875 22.015625 51.21875 19 
" id="LiberationSans-33"/>
       <path d="M 51.703125 34.421875 
Q 51.703125 24.515625 49.828125 17.75 
Q 47.953125 10.984375 44.703125 6.8125 
Q 41.453125 2.640625 37.0625 0.828125 
Q 32.671875 -0.984375 27.6875 -0.984375 
Q 22.65625 -0.984375 18.3125 0.828125 
Q 13.96875 2.640625 10.765625 6.78125 
Q 7.5625 10.9375 5.734375 17.703125 
Q 3.90625 24.46875 3.90625 34.421875 
Q 3.90625 44.828125 5.734375 51.640625 
Q 7.5625 58.453125 10.78125 62.5 
Q 14.015625 66.546875 18.40625 68.1875 
Q 22.796875 69.828125 27.984375 69.828125 
Q 32.90625 69.828125 37.21875 68.1875 
Q 41.546875 66.546875 44.765625 62.5 
Q 48 58.453125 49.84375 51.640625 
Q 51.703125 44.828125 51.703125 34.421875 
M 42.78125 34.421875 
Q 42.78125 42.625 41.796875 48.0625 
Q 40.828125 53.515625 38.921875 56.765625 
Q 37.015625 60.015625 34.25 61.359375 
Q 31.5 62.703125 27.984375 62.703125 
Q 24.265625 62.703125 21.4375 61.328125 
Q 18.609375 59.96875 16.671875 56.71875 
Q 14.75 53.46875 13.765625 48.015625 
Q 12.796875 42.578125 12.796875 34.421875 
Q 12.796875 26.515625 13.796875 21.09375 
Q 14.796875 15.671875 16.71875 12.375 
Q 18.65625 9.078125 21.4375 7.640625 
Q 24.21875 6.203125 27.78125 6.203125 
Q 31.25 6.203125 34.03125 7.640625 
Q 36.8125 9.078125 38.734375 12.375 
Q 40.671875 15.671875 41.71875 21.09375 
Q 42.78125 26.515625 42.78125 34.421875 
" id="LiberationSans-30"/>
      </defs>
      <g style="fill:#808080;" transform="translate(110.8040625 342.043125)scale(0.1 -0.1)">
       <use xlink:href="#LiberationSans-33"/>
       <use x="55.615234375" xlink:href="#LiberationSans-2e"/>
       <use x="83.3984375" xlink:href="#LiberationSans-30"/>
      </g>
     </g>
    </g>
    <g id="xtick_3">
     <g id="line2d_7">
      <path clip-path="url(#p21b3c24e62)" d="M 192.154063 327.79625 
L 192.154063 20.89625 
" style="fill:none;stroke:#ffffff;stroke-linecap:round;"/>
     </g>
     <g id="line2d_8"/>
     <g id="line2d_9"/>
     <g id="text_3">
      <!-- 3.5 -->
      <g style="fill:#808080;" transform="translate(185.2040625 342.043125)scale(0.1 -0.1)">
       <use xlink:href="#LiberationSans-33"/>
       <use x="55.615234375" xlink:href="#LiberationSans-2e"/>
       <use x="83.3984375" xlink:href="#LiberationSans-35"/>
      </g>
     </g>
    </g>
    <g id="xtick_4">
     <g id="line2d_10">
      <path clip-path="url(#p21b3c24e62)" d="M 266.554062 327.79625 
L 266.554062 20.89625 
" style="fill:none;stroke:#ffffff;stroke-linecap:round;"/>
     </g>
     <g id="line2d_11"/>
     <g id="line2d_12"/>
     <g id="text_4">
      <!-- 4.0 -->
      <defs>
       <path d="M 43.015625 15.578125 
L 43.015625 0 
L 34.71875 0 
L 34.71875 15.578125 
L 2.296875 15.578125 
L 2.296875 22.40625 
L 33.796875 68.796875 
L 43.015625 68.796875 
L 43.015625 22.515625 
L 52.6875 22.515625 
L 52.6875 15.578125 
z
M 34.71875 58.890625 
Q 34.625 58.640625 34.234375 57.9375 
Q 33.84375 57.234375 33.34375 56.34375 
Q 32.859375 55.46875 32.34375 54.5625 
Q 31.84375 53.65625 31.453125 53.078125 
L 13.8125 27.09375 
Q 13.578125 26.703125 13.109375 26.0625 
Q 12.640625 25.4375 12.15625 24.78125 
Q 11.671875 24.125 11.171875 23.484375 
Q 10.6875 22.859375 10.40625 22.515625 
L 34.71875 22.515625 
z
" id="LiberationSans-34"/>
      </defs>
      <g style="fill:#808080;" transform="translate(259.6040625 342.043125)scale(0.1 -0.1)">
       <use xlink:href="#LiberationSans-34"/>
       <use x="55.615234375" xlink:href="#LiberationSans-2e"/>
       <use x="83.3984375" xlink:href="#LiberationSans-30"/>
      </g>
     </g>
    </g>
    <g id="xtick_5">
     <g id="line2d_13">
      <path clip-path="url(#p21b3c24e62)" d="M 340.954062 327.79625 
L 340.954062 20.89625 
" style="fill:none;stroke:#ffffff;stroke-linecap:round;"/>
     </g>
     <g id="line2d_14"/>
     <g id="line2d_15"/>
     <g id="text_5">
      <!-- 4.5 -->
      <g style="fill:#808080;" transform="translate(334.0040625 342.043125)scale(0.1 -0.1)">
       <use xlink:href="#LiberationSans-34"/>
       <use x="55.615234375" xlink:href="#LiberationSans-2e"/>
       <use x="83.3984375" xlink:href="#LiberationSans-35"/>
      </g>
     </g>
    </g>
    <g id="xtick_6">
     <g id="line2d_16">
      <path clip-path="url(#p21b3c24e62)" d="M 415.354062 327.79625 
L 415.354062 20.89625 
" style="fill:none;stroke:#ffffff;stroke-linecap:round;"/>
     </g>
     <g id="line2d_17"/>
     <g id="line2d_18"/>
     <g id="text_6">
      <!-- 5.0 -->
      <g style="fill:#808080;" transform="translate(408.4040625 342.043125)scale(0.1 -0.1)">
       <use xlink:href="#LiberationSans-35"/>
       <use x="55.615234375" xlink:href="#LiberationSans-2e"/>
       <use x="83.3984375" xlink:href="#LiberationSans-30"/>
      </g>
     </g>
    </g>
    <g id="xtick_7">
     <g id="line2d_19">
      <path clip-path="url(#p21b3c24e62)" d="M 489.754062 327.79625 
L 489.754062 20.89625 
" style="fill:none;stroke:#ffffff;stroke-linecap:round;"/>
     </g>
     <g id="line2d_20"/>
     <g id="line2d_21"/>
     <g id="text_7">
      <!-- 5.5 -->
      <g style="fill:#808080;" transform="translate(482.8040625 342.043125)scale(0.1 -0.1)">
       <use xlink:href="#LiberationSans-35"/>
       <use x="55.615234375" xlink:href="#LiberationSans-2e"/>
       <use x="83.3984375" xlink:href="#LiberationSans-35"/>
      </g>
     </g>
    </g>
    <g id="text_8">
     <!-- log10 income -->
     <defs>
      <path d="M 13.484375 24.5625 
Q 13.484375 20.40625 14.328125 16.90625 
Q 15.1875 13.421875 16.96875 10.90625 
Q 18.75 8.40625 21.53125 7 
Q 24.3125 5.609375 28.21875 5.609375 
Q 33.9375 5.609375 37.375 7.90625 
Q 40.828125 10.203125 42.046875 13.71875 
L 49.75 11.53125 
Q 48.921875 9.328125 47.4375 7.109375 
Q 45.953125 4.890625 43.453125 3.09375 
Q 40.96875 1.3125 37.234375 0.15625 
Q 33.5 -0.984375 28.21875 -0.984375 
Q 16.5 -0.984375 10.375 6 
Q 4.25 12.984375 4.25 26.765625 
Q 4.25 34.1875 6.09375 39.328125 
Q 7.953125 44.484375 11.171875 47.703125 
Q 14.40625 50.921875 18.703125 52.359375 
Q 23 53.8125 27.875 53.8125 
Q 34.515625 53.8125 38.984375 51.65625 
Q 43.453125 49.515625 46.15625 45.71875 
Q 48.875 41.9375 50.015625 36.8125 
Q 51.171875 31.6875 51.171875 25.734375 
L 51.171875 24.5625 
z
M 42.09375 31.296875 
Q 41.359375 39.65625 37.84375 43.484375 
Q 34.328125 47.3125 27.734375 47.3125 
Q 25.53125 47.3125 23.109375 46.609375 
Q 20.703125 45.90625 18.65625 44.09375 
Q 16.609375 42.28125 15.1875 39.171875 
Q 13.765625 36.078125 13.578125 31.296875 
z
" id="LiberationSans-65"/>
      <path d="M 6.6875 64.0625 
L 6.6875 72.46875 
L 15.484375 72.46875 
L 15.484375 64.0625 
z
M 6.6875 0 
L 6.6875 52.828125 
L 15.484375 52.828125 
L 15.484375 0 
z
" id="LiberationSans-69"/>
      <path d="M 40.28125 0 
L 40.28125 33.5 
Q 40.28125 37.359375 39.71875 39.9375 
Q 39.15625 42.53125 37.890625 44.109375 
Q 36.625 45.703125 34.546875 46.359375 
Q 32.46875 47.015625 29.390625 47.015625 
Q 26.265625 47.015625 23.75 45.921875 
Q 21.234375 44.828125 19.453125 42.75 
Q 17.671875 40.671875 16.6875 37.625 
Q 15.71875 34.578125 15.71875 30.609375 
L 15.71875 0 
L 6.9375 0 
L 6.9375 41.546875 
Q 6.9375 43.21875 6.90625 45.046875 
Q 6.890625 46.875 6.828125 48.5 
Q 6.78125 50.140625 6.734375 51.3125 
Q 6.6875 52.484375 6.640625 52.828125 
L 14.9375 52.828125 
Q 14.984375 52.59375 15.03125 51.515625 
Q 15.09375 50.4375 15.15625 49.046875 
Q 15.234375 47.65625 15.28125 46.21875 
Q 15.328125 44.78125 15.328125 43.796875 
L 15.484375 43.796875 
Q 16.75 46.09375 18.265625 47.953125 
Q 19.78125 49.8125 21.78125 51.09375 
Q 23.78125 52.390625 26.359375 53.09375 
Q 28.953125 53.8125 32.375 53.8125 
Q 36.765625 53.8125 39.9375 52.734375 
Q 43.109375 51.65625 45.15625 49.40625 
Q 47.21875 47.171875 48.171875 43.625 
Q 49.125 40.09375 49.125 35.203125 
L 49.125 0 
z
" id="LiberationSans-6e"/>
      <path d="M 51.421875 26.46875 
Q 51.421875 12.59375 45.3125 5.796875 
Q 39.203125 -0.984375 27.59375 -0.984375 
Q 22.078125 -0.984375 17.71875 0.671875 
Q 13.375 2.34375 10.375 5.765625 
Q 7.375 9.1875 5.78125 14.328125 
Q 4.203125 19.484375 4.203125 26.46875 
Q 4.203125 53.8125 27.875 53.8125 
Q 34.03125 53.8125 38.5 52.09375 
Q 42.96875 50.390625 45.828125 46.96875 
Q 48.6875 43.5625 50.046875 38.421875 
Q 51.421875 33.296875 51.421875 26.46875 
M 42.1875 26.46875 
Q 42.1875 32.625 41.234375 36.625 
Q 40.28125 40.625 38.453125 43.015625 
Q 36.625 45.40625 33.984375 46.359375 
Q 31.34375 47.3125 28.03125 47.3125 
Q 24.65625 47.3125 21.9375 46.3125 
Q 19.234375 45.3125 17.328125 42.890625 
Q 15.4375 40.484375 14.421875 36.46875 
Q 13.421875 32.46875 13.421875 26.46875 
Q 13.421875 20.3125 14.5 16.28125 
Q 15.578125 12.25 17.453125 9.859375 
Q 19.34375 7.46875 21.90625 6.484375 
Q 24.46875 5.515625 27.484375 5.515625 
Q 30.859375 5.515625 33.59375 6.46875 
Q 36.328125 7.421875 38.234375 9.8125 
Q 40.140625 12.203125 41.15625 16.25 
Q 42.1875 20.3125 42.1875 26.46875 
" id="LiberationSans-6f"/>
      <path d="M 7.625 0 
L 7.625 7.46875 
L 25.140625 7.46875 
L 25.140625 60.40625 
L 9.625 49.3125 
L 9.625 57.625 
L 25.875 68.796875 
L 33.984375 68.796875 
L 33.984375 7.46875 
L 50.734375 7.46875 
L 50.734375 0 
z
" id="LiberationSans-31"/>
      <path id="LiberationSans-20"/>
      <path d="M 13.421875 26.65625 
Q 13.421875 22.125 14.078125 18.3125 
Q 14.75 14.5 16.3125 11.734375 
Q 17.875 8.984375 20.4375 7.46875 
Q 23 5.953125 26.765625 5.953125 
Q 31.453125 5.953125 34.59375 8.484375 
Q 37.75 11.03125 38.484375 16.3125 
L 47.359375 15.71875 
Q 46.921875 12.453125 45.453125 9.421875 
Q 44 6.390625 41.484375 4.09375 
Q 38.96875 1.8125 35.34375 0.40625 
Q 31.734375 -0.984375 27 -0.984375 
Q 20.796875 -0.984375 16.453125 1.109375 
Q 12.109375 3.21875 9.390625 6.90625 
Q 6.6875 10.59375 5.46875 15.59375 
Q 4.25 20.609375 4.25 26.46875 
Q 4.25 31.78125 5.125 35.859375 
Q 6 39.9375 7.59375 42.984375 
Q 9.1875 46.046875 11.328125 48.125 
Q 13.484375 50.203125 15.984375 51.4375 
Q 18.5 52.6875 21.28125 53.25 
Q 24.078125 53.8125 26.90625 53.8125 
Q 31.34375 53.8125 34.8125 52.59375 
Q 38.28125 51.375 40.796875 49.25 
Q 43.3125 47.125 44.875 44.234375 
Q 46.4375 41.359375 47.078125 38.03125 
L 38.03125 37.359375 
Q 37.359375 41.75 34.5625 44.328125 
Q 31.78125 46.921875 26.65625 46.921875 
Q 22.90625 46.921875 20.390625 45.671875 
Q 17.875 44.4375 16.3125 41.921875 
Q 14.75 39.40625 14.078125 35.59375 
Q 13.421875 31.78125 13.421875 26.65625 
" id="LiberationSans-63"/>
      <path d="M 37.5 0 
L 37.5 33.5 
Q 37.5 37.359375 37.015625 39.9375 
Q 36.53125 42.53125 35.375 44.109375 
Q 34.234375 45.703125 32.375 46.359375 
Q 30.515625 47.015625 27.828125 47.015625 
Q 25.046875 47.015625 22.796875 45.921875 
Q 20.5625 44.828125 18.96875 42.75 
Q 17.390625 40.671875 16.53125 37.625 
Q 15.671875 34.578125 15.671875 30.609375 
L 15.671875 0 
L 6.9375 0 
L 6.9375 41.546875 
Q 6.9375 43.21875 6.90625 45.046875 
Q 6.890625 46.875 6.828125 48.5 
Q 6.78125 50.140625 6.734375 51.3125 
Q 6.6875 52.484375 6.640625 52.828125 
L 14.9375 52.828125 
Q 14.984375 52.59375 15.03125 51.515625 
Q 15.09375 50.4375 15.15625 49.046875 
Q 15.234375 47.65625 15.28125 46.21875 
Q 15.328125 44.78125 15.328125 43.796875 
L 15.484375 43.796875 
Q 16.65625 46.09375 18.015625 47.953125 
Q 19.390625 49.8125 21.21875 51.09375 
Q 23.046875 52.390625 25.40625 53.09375 
Q 27.78125 53.8125 30.90625 53.8125 
Q 36.921875 53.8125 40.40625 51.421875 
Q 43.890625 49.03125 45.265625 43.796875 
L 45.40625 43.796875 
Q 46.578125 46.09375 48.046875 47.953125 
Q 49.515625 49.8125 51.46875 51.09375 
Q 53.421875 52.390625 55.859375 53.09375 
Q 58.296875 53.8125 61.421875 53.8125 
Q 65.4375 53.8125 68.328125 52.734375 
Q 71.234375 51.65625 73.09375 49.40625 
Q 74.953125 47.171875 75.828125 43.625 
Q 76.703125 40.09375 76.703125 35.203125 
L 76.703125 0 
L 68.015625 0 
L 68.015625 33.5 
Q 68.015625 37.359375 67.53125 39.9375 
Q 67.046875 42.53125 65.890625 44.109375 
Q 64.75 45.703125 62.890625 46.359375 
Q 61.03125 47.015625 58.34375 47.015625 
Q 55.5625 47.015625 53.3125 45.96875 
Q 51.078125 44.921875 49.484375 42.875 
Q 47.90625 40.828125 47.046875 37.75 
Q 46.1875 34.671875 46.1875 30.609375 
L 46.1875 0 
z
" id="LiberationSans-6d"/>
      <path d="M 6.734375 0 
L 6.734375 72.46875 
L 15.53125 72.46875 
L 15.53125 0 
z
" id="LiberationSans-6c"/>
      <path d="M 26.765625 -20.75 
Q 22.21875 -20.75 18.703125 -19.8125 
Q 15.1875 -18.890625 12.6875 -17.15625 
Q 10.203125 -15.4375 8.640625 -13.03125 
Q 7.078125 -10.640625 6.390625 -7.71875 
L 15.234375 -6.453125 
Q 16.109375 -10.109375 19.109375 -12.078125 
Q 22.125 -14.0625 27 -14.0625 
Q 29.984375 -14.0625 32.421875 -13.234375 
Q 34.859375 -12.40625 36.5625 -10.5625 
Q 38.28125 -8.734375 39.203125 -5.796875 
Q 40.140625 -2.875 40.140625 1.3125 
L 40.140625 9.8125 
L 40.046875 9.8125 
Q 39.0625 7.8125 37.625 5.984375 
Q 36.1875 4.15625 34.109375 2.734375 
Q 32.03125 1.3125 29.296875 0.453125 
Q 26.5625 -0.390625 23.046875 -0.390625 
Q 18.015625 -0.390625 14.421875 1.296875 
Q 10.84375 2.984375 8.5625 6.34375 
Q 6.296875 9.71875 5.25 14.71875 
Q 4.203125 19.734375 4.203125 26.3125 
Q 4.203125 32.671875 5.25 37.75 
Q 6.296875 42.828125 8.65625 46.359375 
Q 11.03125 49.90625 14.8125 51.78125 
Q 18.609375 53.65625 24.03125 53.65625 
Q 29.640625 53.65625 33.765625 51.09375 
Q 37.890625 48.53125 40.140625 43.796875 
L 40.234375 43.796875 
Q 40.234375 45.015625 40.296875 46.53125 
Q 40.375 48.046875 40.453125 49.390625 
Q 40.53125 50.734375 40.625 51.703125 
Q 40.71875 52.6875 40.828125 52.828125 
L 49.171875 52.828125 
Q 49.125 52.390625 49.078125 51.34375 
Q 49.03125 50.296875 48.96875 48.828125 
Q 48.921875 47.359375 48.890625 45.578125 
Q 48.875 43.796875 48.875 41.890625 
L 48.875 1.515625 
Q 48.875 -9.578125 43.421875 -15.15625 
Q 37.984375 -20.75 26.765625 -20.75 
M 40.140625 26.421875 
Q 40.140625 31.9375 38.9375 35.859375 
Q 37.75 39.796875 35.796875 42.28125 
Q 33.84375 44.78125 31.328125 45.953125 
Q 28.8125 47.125 26.171875 47.125 
Q 22.796875 47.125 20.375 45.953125 
Q 17.96875 44.78125 16.375 42.265625 
Q 14.796875 39.75 14.03125 35.8125 
Q 13.28125 31.890625 13.28125 26.421875 
Q 13.28125 20.703125 14.03125 16.8125 
Q 14.796875 12.9375 16.359375 10.546875 
Q 17.921875 8.15625 20.3125 7.125 
Q 22.703125 6.109375 26.03125 6.109375 
Q 28.65625 6.109375 31.171875 7.21875 
Q 33.6875 8.34375 35.6875 10.78125 
Q 37.703125 13.234375 38.921875 17.09375 
Q 40.140625 20.953125 40.140625 26.421875 
" id="LiberationSans-67"/>
     </defs>
     <g style="fill:#262626;" transform="translate(233.84109375 357.0896875)scale(0.11 -0.11)">
      <use xlink:href="#LiberationSans-6c"/>
      <use x="22.216796875" xlink:href="#LiberationSans-6f"/>
      <use x="77.83203125" xlink:href="#LiberationSans-67"/>
      <use x="133.447265625" xlink:href="#LiberationSans-31"/>
      <use x="189.0625" xlink:href="#LiberationSans-30"/>
      <use x="244.677734375" xlink:href="#LiberationSans-20"/>
      <use x="272.4609375" xlink:href="#LiberationSans-69"/>
      <use x="294.677734375" xlink:href="#LiberationSans-6e"/>
      <use x="350.29296875" xlink:href="#LiberationSans-63"/>
      <use x="400.29296875" xlink:href="#LiberationSans-6f"/>
      <use x="455.908203125" xlink:href="#LiberationSans-6d"/>
      <use x="539.208984375" xlink:href="#LiberationSans-65"/>
     </g>
    </g>
   </g>
   <g id="matplotlib.axis_2">
    <g id="ytick_1">
     <g id="line2d_22">
      <path clip-path="url(#p21b3c24e62)" d="M 43.354062 327.79625 
L 489.754062 327.79625 
" style="fill:none;stroke:#ffffff;stroke-linecap:round;"/>
     </g>
     <g id="line2d_23"/>
     <g id="line2d_24"/>
     <g id="text_9">
      <!-- 0.0 -->
      <g style="fill:#808080;" transform="translate(22.4540625 330.3821875)scale(0.1 -0.1)">
       <use xlink:href="#LiberationSans-30"/>
       <use x="55.615234375" xlink:href="#LiberationSans-2e"/>
       <use x="83.3984375" xlink:href="#LiberationSans-30"/>
      </g>
     </g>
    </g>
    <g id="ytick_2">
     <g id="line2d_25">
      <path clip-path="url(#p21b3c24e62)" d="M 43.354062 266.41625 
L 489.754062 266.41625 
" style="fill:none;stroke:#ffffff;stroke-linecap:round;"/>
     </g>
     <g id="line2d_26"/>
     <g id="line2d_27"/>
     <g id="text_10">
      <!-- 0.2 -->
      <g style="fill:#808080;" transform="translate(22.4540625 269.0021875)scale(0.1 -0.1)">
       <use xlink:href="#LiberationSans-30"/>
       <use x="55.615234375" xlink:href="#LiberationSans-2e"/>
       <use x="83.3984375" xlink:href="#LiberationSans-32"/>
      </g>
     </g>
    </g>
    <g id="ytick_3">
     <g id="line2d_28">
      <path clip-path="url(#p21b3c24e62)" d="M 43.354062 205.03625 
L 489.754062 205.03625 
" style="fill:none;stroke:#ffffff;stroke-linecap:round;"/>
     </g>
     <g id="line2d_29"/>
     <g id="line2d_30"/>
     <g id="text_11">
      <!-- 0.4 -->
      <g style="fill:#808080;" transform="translate(22.4540625 207.6221875)scale(0.1 -0.1)">
       <use xlink:href="#LiberationSans-30"/>
       <use x="55.615234375" xlink:href="#LiberationSans-2e"/>
       <use x="83.3984375" xlink:href="#LiberationSans-34"/>
      </g>
     </g>
    </g>
    <g id="ytick_4">
     <g id="line2d_31">
      <path clip-path="url(#p21b3c24e62)" d="M 43.354062 143.65625 
L 489.754062 143.65625 
" style="fill:none;stroke:#ffffff;stroke-linecap:round;"/>
     </g>
     <g id="line2d_32"/>
     <g id="line2d_33"/>
     <g id="text_12">
      <!-- 0.6 -->
      <defs>
       <path d="M 51.21875 22.515625 
Q 51.21875 17.328125 49.78125 13 
Q 48.34375 8.6875 45.53125 5.578125 
Q 42.71875 2.484375 38.5625 0.75 
Q 34.421875 -0.984375 29 -0.984375 
Q 23 -0.984375 18.5 1.3125 
Q 14.015625 3.609375 11.03125 7.921875 
Q 8.0625 12.25 6.5625 18.53125 
Q 5.078125 24.8125 5.078125 32.8125 
Q 5.078125 42 6.765625 48.921875 
Q 8.453125 55.859375 11.625 60.5 
Q 14.796875 65.140625 19.359375 67.484375 
Q 23.921875 69.828125 29.6875 69.828125 
Q 33.203125 69.828125 36.28125 69.09375 
Q 39.359375 68.359375 41.875 66.71875 
Q 44.390625 65.09375 46.28125 62.40625 
Q 48.1875 59.71875 49.3125 55.8125 
L 40.921875 54.296875 
Q 39.546875 58.734375 36.546875 60.71875 
Q 33.546875 62.703125 29.59375 62.703125 
Q 25.984375 62.703125 23.046875 60.984375 
Q 20.125 59.28125 18.0625 55.875 
Q 16.015625 52.484375 14.90625 47.359375 
Q 13.8125 42.234375 13.8125 35.40625 
Q 16.21875 39.84375 20.5625 42.15625 
Q 24.90625 44.484375 30.515625 44.484375 
Q 35.203125 44.484375 39.015625 42.96875 
Q 42.828125 41.453125 45.53125 38.59375 
Q 48.25 35.75 49.734375 31.671875 
Q 51.21875 27.59375 51.21875 22.515625 
M 42.28125 22.125 
Q 42.28125 25.6875 41.40625 28.5625 
Q 40.53125 31.453125 38.765625 33.46875 
Q 37.015625 35.5 34.421875 36.59375 
Q 31.84375 37.703125 28.421875 37.703125 
Q 26.03125 37.703125 23.578125 36.984375 
Q 21.140625 36.28125 19.15625 34.6875 
Q 17.1875 33.109375 15.9375 30.515625 
Q 14.703125 27.9375 14.703125 24.21875 
Q 14.703125 20.40625 15.671875 17.109375 
Q 16.65625 13.8125 18.484375 11.375 
Q 20.3125 8.9375 22.890625 7.515625 
Q 25.484375 6.109375 28.71875 6.109375 
Q 31.890625 6.109375 34.40625 7.203125 
Q 36.921875 8.296875 38.671875 10.375 
Q 40.4375 12.453125 41.359375 15.421875 
Q 42.28125 18.40625 42.28125 22.125 
" id="LiberationSans-36"/>
      </defs>
      <g style="fill:#808080;" transform="translate(22.4540625 146.2421875)scale(0.1 -0.1)">
       <use xlink:href="#LiberationSans-30"/>
       <use x="55.615234375" xlink:href="#LiberationSans-2e"/>
       <use x="83.3984375" xlink:href="#LiberationSans-36"/>
      </g>
     </g>
    </g>
    <g id="ytick_5">
     <g id="line2d_34">
      <path clip-path="url(#p21b3c24e62)" d="M 43.354062 82.27625 
L 489.754062 82.27625 
" style="fill:none;stroke:#ffffff;stroke-linecap:round;"/>
     </g>
     <g id="line2d_35"/>
     <g id="line2d_36"/>
     <g id="text_13">
      <!-- 0.8 -->
      <defs>
       <path d="M 51.265625 19.1875 
Q 51.265625 14.796875 49.875 11.109375 
Q 48.484375 7.421875 45.625 4.734375 
Q 42.78125 2.046875 38.328125 0.53125 
Q 33.890625 -0.984375 27.828125 -0.984375 
Q 21.78125 -0.984375 17.359375 0.53125 
Q 12.9375 2.046875 10.03125 4.703125 
Q 7.125 7.375 5.734375 11.0625 
Q 4.34375 14.75 4.34375 19.09375 
Q 4.34375 22.859375 5.484375 25.78125 
Q 6.640625 28.71875 8.5625 30.828125 
Q 10.5 32.953125 12.96875 34.25 
Q 15.4375 35.546875 18.0625 35.984375 
L 18.0625 36.1875 
Q 15.1875 36.859375 12.90625 38.375 
Q 10.640625 39.890625 9.09375 42.015625 
Q 7.5625 44.140625 6.75 46.71875 
Q 5.953125 49.3125 5.953125 52.203125 
Q 5.953125 55.8125 7.34375 59 
Q 8.734375 62.203125 11.46875 64.625 
Q 14.203125 67.046875 18.25 68.4375 
Q 22.3125 69.828125 27.640625 69.828125 
Q 33.25 69.828125 37.375 68.40625 
Q 41.5 67 44.203125 64.578125 
Q 46.921875 62.15625 48.234375 58.9375 
Q 49.5625 55.71875 49.5625 52.09375 
Q 49.5625 49.265625 48.75 46.671875 
Q 47.953125 44.09375 46.40625 41.96875 
Q 44.875 39.84375 42.59375 38.34375 
Q 40.328125 36.859375 37.359375 36.28125 
L 37.359375 36.078125 
Q 40.328125 35.59375 42.859375 34.296875 
Q 45.40625 33.015625 47.265625 30.890625 
Q 49.125 28.765625 50.1875 25.828125 
Q 51.265625 22.90625 51.265625 19.1875 
M 40.4375 51.609375 
Q 40.4375 54.203125 39.765625 56.34375 
Q 39.109375 58.5 37.59375 60.03125 
Q 36.078125 61.578125 33.640625 62.421875 
Q 31.203125 63.28125 27.640625 63.28125 
Q 24.171875 63.28125 21.78125 62.421875 
Q 19.390625 61.578125 17.84375 60.03125 
Q 16.3125 58.5 15.625 56.34375 
Q 14.9375 54.203125 14.9375 51.609375 
Q 14.9375 49.5625 15.46875 47.40625 
Q 16.015625 45.265625 17.421875 43.5 
Q 18.84375 41.75 21.328125 40.625 
Q 23.828125 39.5 27.734375 39.5 
Q 31.890625 39.5 34.40625 40.625 
Q 36.921875 41.75 38.25 43.5 
Q 39.59375 45.265625 40.015625 47.40625 
Q 40.4375 49.5625 40.4375 51.609375 
M 42.140625 20.015625 
Q 42.140625 22.515625 41.453125 24.828125 
Q 40.765625 27.15625 39.109375 28.9375 
Q 37.453125 30.71875 34.640625 31.8125 
Q 31.84375 32.90625 27.640625 32.90625 
Q 23.78125 32.90625 21.0625 31.8125 
Q 18.359375 30.71875 16.671875 28.90625 
Q 14.984375 27.09375 14.203125 24.71875 
Q 13.421875 22.359375 13.421875 19.828125 
Q 13.421875 16.65625 14.203125 14.03125 
Q 14.984375 11.421875 16.6875 9.546875 
Q 18.40625 7.671875 21.1875 6.640625 
Q 23.96875 5.609375 27.9375 5.609375 
Q 31.9375 5.609375 34.671875 6.640625 
Q 37.40625 7.671875 39.0625 9.546875 
Q 40.71875 11.421875 41.421875 14.078125 
Q 42.140625 16.75 42.140625 20.015625 
" id="LiberationSans-38"/>
      </defs>
      <g style="fill:#808080;" transform="translate(22.4540625 84.8621875)scale(0.1 -0.1)">
       <use xlink:href="#LiberationSans-30"/>
       <use x="55.615234375" xlink:href="#LiberationSans-2e"/>
       <use x="83.3984375" xlink:href="#LiberationSans-38"/>
      </g>
     </g>
    </g>
    <g id="ytick_6">
     <g id="line2d_37">
      <path clip-path="url(#p21b3c24e62)" d="M 43.354062 20.89625 
L 489.754062 20.89625 
" style="fill:none;stroke:#ffffff;stroke-linecap:round;"/>
     </g>
     <g id="line2d_38"/>
     <g id="line2d_39"/>
     <g id="text_14">
      <!-- 1.0 -->
      <g style="fill:#808080;" transform="translate(22.4540625 23.4821875)scale(0.1 -0.1)">
       <use xlink:href="#LiberationSans-31"/>
       <use x="55.615234375" xlink:href="#LiberationSans-2e"/>
       <use x="83.3984375" xlink:href="#LiberationSans-30"/>
      </g>
     </g>
    </g>
    <g id="text_15">
     <!-- CDF -->
     <defs>
      <path d="M 67.4375 35.109375 
Q 67.4375 26.515625 64.84375 19.9375 
Q 62.25 13.375 57.75 8.953125 
Q 53.265625 4.546875 47.140625 2.265625 
Q 41.015625 0 33.9375 0 
L 8.203125 0 
L 8.203125 68.796875 
L 30.953125 68.796875 
Q 38.921875 68.796875 45.625 66.8125 
Q 52.34375 64.84375 57.171875 60.71875 
Q 62.015625 56.59375 64.71875 50.234375 
Q 67.4375 43.890625 67.4375 35.109375 
M 58.0625 35.109375 
Q 58.0625 42.09375 56.046875 47.046875 
Q 54.046875 52 50.4375 55.171875 
Q 46.828125 58.34375 41.796875 59.828125 
Q 36.765625 61.328125 30.765625 61.328125 
L 17.53125 61.328125 
L 17.53125 7.46875 
L 32.859375 7.46875 
Q 38.28125 7.46875 42.890625 9.21875 
Q 47.515625 10.984375 50.875 14.453125 
Q 54.25 17.921875 56.15625 23.09375 
Q 58.0625 28.265625 58.0625 35.109375 
" id="LiberationSans-44"/>
      <path d="M 38.671875 62.203125 
Q 32.8125 62.203125 28.296875 60.25 
Q 23.78125 58.296875 20.71875 54.6875 
Q 17.671875 51.078125 16.109375 46 
Q 14.546875 40.921875 14.546875 34.71875 
Q 14.546875 28.515625 16.234375 23.359375 
Q 17.921875 18.21875 21.0625 14.5 
Q 24.21875 10.796875 28.78125 8.734375 
Q 33.34375 6.6875 39.0625 6.6875 
Q 43.0625 6.6875 46.359375 7.734375 
Q 49.65625 8.796875 52.3125 10.6875 
Q 54.984375 12.59375 57.078125 15.203125 
Q 59.1875 17.828125 60.796875 21 
L 68.40625 17.1875 
Q 66.546875 13.328125 63.8125 10 
Q 61.078125 6.6875 57.390625 4.25 
Q 53.71875 1.8125 49.046875 0.40625 
Q 44.390625 -0.984375 38.625 -0.984375 
Q 30.28125 -0.984375 24 1.671875 
Q 17.71875 4.34375 13.5 9.109375 
Q 9.28125 13.875 7.171875 20.40625 
Q 5.078125 26.953125 5.078125 34.71875 
Q 5.078125 42.78125 7.296875 49.265625 
Q 9.515625 55.765625 13.78125 60.328125 
Q 18.0625 64.890625 24.3125 67.359375 
Q 30.5625 69.828125 38.578125 69.828125 
Q 49.5625 69.828125 56.9375 65.53125 
Q 64.3125 61.234375 67.78125 52.78125 
L 58.9375 49.859375 
Q 57.953125 52.296875 56.296875 54.515625 
Q 54.640625 56.734375 52.140625 58.4375 
Q 49.65625 60.15625 46.3125 61.171875 
Q 42.96875 62.203125 38.671875 62.203125 
" id="LiberationSans-43"/>
      <path d="M 17.53125 61.1875 
L 17.53125 35.59375 
L 55.90625 35.59375 
L 55.90625 27.875 
L 17.53125 27.875 
L 17.53125 0 
L 8.203125 0 
L 8.203125 68.796875 
L 57.078125 68.796875 
L 57.078125 61.1875 
z
" id="LiberationSans-46"/>
     </defs>
     <g style="fill:#262626;" transform="translate(15.1715625 185.649609375)rotate(-90.0)scale(0.11 -0.11)">
      <use xlink:href="#LiberationSans-43"/>
      <use x="72.216796875" xlink:href="#LiberationSans-44"/>
      <use x="144.43359375" xlink:href="#LiberationSans-46"/>
     </g>
    </g>
   </g>
   <g id="line2d_40">
    <path clip-path="url(#p21b3c24e62)" d="M 52.268168 48.874127 
L 52.268168 49.05478 
L 53.415092 49.05478 
L 53.415092 49.26457 
L 55.73404 49.26457 
L 55.73404 49.386948 
L 58.782472 49.386948 
L 58.782472 49.602566 
L 64.846525 49.689978 
L 64.846525 49.917251 
L 71.125539 50.027974 
L 71.125539 50.121214 
L 75.121455 50.121214 
L 75.121455 50.284384 
L 77.333105 50.284384 
L 77.333105 50.488347 
L 80.399736 50.488347 
L 80.399736 50.634035 
L 83.327412 50.634035 
L 83.327412 50.750585 
L 88.81259 50.849653 
L 88.81259 50.913755 
L 96.972358 51.012823 
L 96.972358 51.123546 
L 100.273714 51.210958 
L 100.273714 51.286716 
L 104.929564 51.344991 
L 104.929564 51.449886 
L 111.303371 51.479024 
L 111.303371 51.636367 
L 132.380736 51.735434 
L 132.380736 51.834502 
L 140.369043 51.916087 
L 140.369043 52.0035 
L 141.854695 52.0035 
L 141.854695 52.195808 
L 143.001618 52.195808 
L 143.001618 52.347323 
L 145.320567 52.347323 
L 145.320567 52.481356 
L 145.531134 52.481356 
L 145.531134 52.662008 
L 148.368999 52.662008 
L 148.368999 52.790214 
L 150.545064 52.790214 
L 150.545064 52.906764 
L 151.625354 52.906764 
L 151.625354 53.081589 
L 154.433051 53.081589 
L 154.433051 53.285552 
L 160.778516 53.36131 
L 160.778516 53.43124 
L 164.676725 53.43124 
L 164.676725 53.600238 
L 166.919632 53.600238 
L 166.919632 53.775063 
L 169.986263 53.775063 
L 169.986263 53.955716 
L 172.88641 53.955716 
L 172.88641 54.124713 
L 178.018757 54.229609 
L 178.018757 54.363641 
L 178.373829 54.363641 
L 178.373829 54.515157 
L 181.484628 54.614224 
L 181.508728 54.783222 
L 184.533061 54.876462 
L 184.533061 54.969702 
L 186.536597 54.969702 
L 186.536597 55.097908 
L 186.709125 55.097908 
L 186.709125 55.220285 
L 188.706609 55.220285 
L 188.706609 55.465041 
L 189.881411 55.465041 
L 189.881411 55.587419 
L 190.597113 55.587419 
L 190.597113 55.738934 
L 192.005168 55.738934 
L 192.005168 55.907932 
L 194.53579 56.012827 
L 194.53579 56.187652 
L 196.933089 56.245927 
L 196.933089 56.350822 
L 197.725325 56.444063 
L 197.725325 56.502338 
L 200.836321 56.548958 
L 200.872044 56.956883 
L 203.083694 57.009331 
L 203.083694 57.143364 
L 206.83781 57.242431 
L 206.83781 57.388119 
L 208.374323 57.481359 
L 208.374323 57.603737 
L 209.046538 57.603737 
L 209.046538 57.801872 
L 210.647238 57.801872 
L 210.693272 58.029145 
L 213.455745 58.06411 
L 213.455745 58.320521 
L 214.54873 58.419589 
L 214.54873 58.576931 
L 217.071062 58.664344 
L 217.071062 58.775067 
L 217.679674 58.775067 
L 217.679674 58.903272 
L 219.169862 58.990685 
L 219.169862 59.083925 
L 219.324391 59.083925 
L 219.324391 59.264578 
L 219.819076 59.264578 
L 219.819076 59.486023 
L 221.488811 59.579263 
L 221.488811 59.689986 
L 221.967263 59.689986 
L 221.967263 60.027981 
L 222.40382 60.027981 
L 222.40382 60.185324 
L 222.710211 60.185324 
L 222.710211 60.301874 
L 224.537243 60.342667 
L 224.537243 60.441735 
L 224.876829 60.441735 
L 224.876829 60.628215 
L 225.294228 60.628215 
L 225.294228 60.832178 
L 226.048496 60.832178 
L 226.145183 61.176001 
L 226.350164 61.176001 
L 226.350164 61.449894 
L 226.889641 61.537307 
L 226.889641 61.717959 
L 227.270548 61.717959 
L 227.270548 61.83451 
L 228.166303 61.83451 
L 228.166303 62.09092 
L 229.944183 62.18416 
L 230.046588 62.825186 
L 230.612567 62.825186 
L 230.691409 63.26225 
L 230.736419 63.26225 
L 230.781398 63.553625 
L 232.292337 63.553625 
L 232.292337 63.72845 
L 233.784852 63.821691 
L 233.784852 63.973206 
L 233.918841 63.973206 
L 233.918841 64.113066 
L 235.096635 64.212134 
L 235.096635 64.707472 
L 235.369439 64.707472 
L 235.369439 64.905607 
L 235.960916 64.905607 
L 235.960916 65.051295 
L 236.644628 65.051295 
L 236.644628 65.20281 
L 237.043758 65.266913 
L 237.043758 65.692321 
L 238.266624 65.692321 
L 238.266624 65.937077 
L 238.953739 65.937077 
L 239.052717 66.403278 
L 239.858672 66.403278 
L 239.858672 66.822858 
L 240.19964 66.822858 
L 240.19964 67.114234 
L 240.837754 67.114234 
L 240.837754 67.271577 
L 241.116157 67.271577 
L 241.192748 68.116566 
L 242.283818 68.116566 
L 242.283818 68.390459 
L 242.518589 68.390459 
L 242.518589 68.606076 
L 243.087876 68.606076 
L 243.087876 68.769247 
L 243.753432 68.845004 
L 243.753432 69.060622 
L 244.403099 69.060622 
L 244.403099 69.305378 
L 245.567021 69.305378 
L 245.567021 69.509341 
L 246.163367 69.509341 
L 246.181085 69.783234 
L 246.894574 69.783234 
L 246.93836 70.103747 
L 247.743086 70.103747 
L 247.743086 70.278572 
L 249.056772 70.278572 
L 249.056772 70.465052 
L 249.563093 70.465052 
L 249.613507 71.036148 
L 250.082156 71.036148 
L 250.082156 71.222629 
L 250.654963 71.222629 
L 250.654963 71.356661 
L 251.639214 71.356661 
L 251.639214 71.793725 
L 251.915381 71.793725 
L 251.915381 72.01517 
L 252.335485 72.01517 
L 252.335485 72.242443 
L 253.278786 72.242443 
L 253.278786 72.574611 
L 253.472927 72.574611 
L 253.472927 73.069949 
L 254.083233 73.069949 
L 254.083233 73.291395 
L 254.5518 73.291395 
L 254.61985 73.868318 
L 255.25604 73.868318 
L 255.25604 74.054799 
L 255.417473 74.054799 
L 255.478865 74.334519 
L 256.938799 74.334519 
L 256.938799 74.7541 
L 257.368562 74.7541 
L 257.368562 74.96389 
L 257.688092 74.96389 
L 257.688092 75.115405 
L 257.969159 75.115405 
L 257.969159 75.319368 
L 258.138686 75.319368 
L 258.138686 75.738949 
L 258.307769 75.738949 
L 258.307769 75.972049 
L 259.903123 75.972049 
L 259.987231 76.834521 
L 260.402585 76.834521 
L 260.402585 76.991864 
L 261.864325 76.991864 
L 261.864325 77.382307 
L 262.163296 77.382307 
L 262.163296 77.708647 
L 262.507346 77.708647 
L 262.534859 78.268088 
L 262.713414 78.268088 
L 262.713414 78.454569 
L 263.79474 78.454569 
L 263.79474 78.582774 
L 264.117654 78.582774 
L 264.117654 78.909115 
L 264.878169 78.909115 
L 264.878169 79.113077 
L 265.852338 79.113077 
L 265.852338 79.36366 
L 266.048027 79.36366 
L 266.113125 80.738953 
L 266.249618 80.738953 
L 266.249618 81.082776 
L 266.440873 81.082776 
L 266.440873 81.479047 
L 266.934218 81.479047 
L 266.934218 81.624734 
L 267.197083 81.624734 
L 267.197083 82.038488 
L 267.587796 82.038488 
L 267.587796 82.388138 
L 268.162382 82.388138 
L 268.162382 82.714479 
L 269.651615 82.714479 
L 269.651615 82.848512 
L 269.903677 82.848512 
L 269.906745 83.425435 
L 270.087492 83.425435 
L 270.087492 83.850843 
L 270.702519 83.850843 
L 270.702519 84.019841 
L 271.263701 84.019841 
L 271.263701 84.468559 
L 271.682904 84.468559 
L 271.682904 84.684177 
L 271.962851 84.684177 
L 271.962851 84.91145 
L 272.389368 84.91145 
L 272.389368 85.156206 
L 272.955177 85.156206 
L 272.955177 85.534994 
L 274.125335 85.616579 
L 274.125335 85.890472 
L 274.377747 85.890472 
L 274.377747 86.158537 
L 275.131242 86.158537 
L 275.131242 86.40912 
L 275.298675 86.40912 
L 275.298675 86.630566 
L 275.580282 86.630566 
L 275.580282 86.846184 
L 276.290094 86.846184 
L 276.290094 87.388142 
L 277.047155 87.388142 
L 277.047155 87.72031 
L 277.236412 87.72031 
L 277.236412 88.075788 
L 277.359543 88.075788 
L 277.414193 88.652712 
L 278.383336 88.652712 
L 278.383336 89.019845 
L 278.53518 89.019845 
L 278.53518 89.532666 
L 278.717458 89.532666 
L 278.824441 90.383482 
L 279.027222 90.383482 
L 279.027222 91.176024 
L 279.947703 91.176024 
L 279.947703 91.385814 
L 280.702284 91.385814 
L 280.702284 91.694672 
L 281.432758 91.694672 
L 281.432758 91.945255 
L 281.617293 91.945255 
L 281.617293 92.574626 
L 282.355268 92.574626 
L 282.355268 92.900967 
L 282.869392 92.988379 
L 282.869392 93.256445 
L 283.742049 93.256445 
L 283.750716 93.961574 
L 284.510149 93.961574 
L 284.510149 94.678357 
L 285.356241 94.678357 
L 285.356241 94.946423 
L 285.904631 94.946423 
L 285.926781 95.645724 
L 286.105502 95.645724 
L 286.105502 96.00703 
L 286.291468 96.00703 
L 286.291468 96.31006 
L 286.484021 96.31006 
L 286.484021 96.677193 
L 287.077081 96.677193 
L 287.077081 96.951086 
L 287.344652 96.951086 
L 287.344652 97.254117 
L 287.50373 97.254117 
L 287.50373 97.638733 
L 287.630944 97.638733 
L 287.630944 97.930108 
L 289.196362 97.930108 
L 289.255513 98.827545 
L 289.618336 98.827545 
L 289.618336 99.09561 
L 289.821532 99.09561 
L 289.821532 99.806566 
L 289.949893 99.806566 
L 289.997119 100.459247 
L 291.503614 100.459247 
L 291.503614 100.995378 
L 291.718491 100.995378 
L 291.731623 101.62475 
L 292.998325 101.62475 
L 292.998325 101.817057 
L 293.138739 101.817057 
L 293.138739 102.219156 
L 293.603885 102.219156 
L 293.667634 102.842699 
L 294.360559 102.842699 
L 294.360559 103.069972 
L 294.572441 103.069972 
L 294.582912 104.252957 
L 295.17439 104.252957 
L 295.17439 104.509367 
L 295.319994 104.509367 
L 295.319994 104.99305 
L 295.719364 104.99305 
L 295.719364 105.383494 
L 295.851941 105.383494 
L 295.851941 105.849694 
L 296.151037 105.849694 
L 296.151037 106.088622 
L 297.478095 106.088622 
L 297.478095 106.665546 
L 298.038313 106.665546 
L 298.139471 107.906806 
L 298.16325 107.906806 
L 298.16325 108.378834 
L 298.864738 108.378834 
L 298.864738 108.681864 
L 299.068238 108.681864 
L 299.072146 109.678369 
L 300.049303 109.678369 
L 300.049303 110.243637 
L 300.325799 110.243637 
L 300.325799 110.826388 
L 300.471251 110.826388 
L 300.471251 111.205176 
L 301.086745 111.205176 
L 301.086745 111.57231 
L 301.499173 111.57231 
L 301.499173 111.997718 
L 301.760177 111.997718 
L 301.760177 112.562986 
L 302.299491 112.562986 
L 302.299491 113.104945 
L 302.514703 113.104945 
L 302.514703 113.460423 
L 302.907101 113.460423 
L 302.965066 114.538512 
L 303.26281 114.538512 
L 303.26281 114.859025 
L 303.61293 114.859025 
L 303.61293 115.325226 
L 305.226049 115.325226 
L 305.226049 115.657394 
L 305.380385 115.657394 
L 305.398101 116.444108 
L 306.106296 116.444108 
L 306.151833 117.673713 
L 306.570671 117.673713 
L 306.570671 118.000053 
L 307.159417 118.000053 
L 307.159417 118.85087 
L 307.386551 118.85087 
L 307.386551 119.194693 
L 308.273634 119.194693 
L 308.274481 120.30192 
L 308.779928 120.30192 
L 308.820261 121.094461 
L 309.298964 121.094461 
L 309.298964 121.61311 
L 309.870089 121.61311 
L 309.870089 121.980243 
L 310.450546 121.980243 
L 310.450546 122.364859 
L 310.648867 122.364859 
L 310.648867 122.813577 
L 311.000665 122.813577 
L 311.000665 123.081642 
L 311.130475 123.081642 
L 311.234137 124.171387 
L 311.266497 124.171387 
L 311.266497 124.567657 
L 311.547347 124.567657 
L 311.547347 124.981411 
L 311.762806 124.981411 
L 311.762806 125.383509 
L 312.38106 125.383509 
L 312.38106 126.065328 
L 312.493847 126.065328 
L 312.493847 126.904489 
L 313.295138 126.904489 
L 313.295138 127.434792 
L 313.486104 127.434792 
L 313.486104 127.708685 
L 313.760605 127.708685 
L 313.760605 128.244816 
L 314.346246 128.244816 
L 314.346246 128.93829 
L 314.466435 128.93829 
L 314.466435 129.427801 
L 314.626339 129.427801 
L 314.700008 130.383513 
L 315.36535 130.383513 
L 315.36535 130.733163 
L 316.583525 130.733163 
L 316.583525 131.251812 
L 316.901565 131.251812 
L 316.901565 131.613117 
L 317.365408 131.613117 
L 317.386011 132.428969 
L 317.518306 132.428969 
L 317.518306 133.064167 
L 317.74844 133.064167 
L 317.74844 133.512886 
L 318.190282 133.512886 
L 318.190282 133.745986 
L 319.116596 133.745986 
L 319.168148 135.185381 
L 319.616059 135.185381 
L 319.635957 136.350883 
L 319.924505 136.350883 
L 319.924505 136.875359 
L 320.516693 136.875359 
L 320.516693 137.166735 
L 320.673511 137.166735 
L 320.673511 137.428973 
L 321.746957 137.428973 
L 321.746957 137.691211 
L 321.928259 137.691211 
L 322.029676 138.79261 
L 322.716205 138.79261 
L 322.716205 139.346223 
L 323.010911 139.346223 
L 323.010911 139.695874 
L 323.176599 139.695874 
L 323.176599 140.488415 
L 323.54551 140.488415 
L 323.54551 141.117787 
L 323.820485 141.117787 
L 323.820485 142.300771 
L 324.088989 142.300771 
L 324.088989 142.720352 
L 324.575296 142.720352 
L 324.575296 143.338068 
L 325.068424 143.338068 
L 325.068424 143.973267 
L 325.2615 143.973267 
L 325.2615 144.381192 
L 325.461793 144.381192 
L 325.495548 145.680727 
L 325.607072 145.680727 
L 325.607072 146.391683 
L 326.148976 146.391683 
L 326.148976 146.782127 
L 326.612427 146.782127 
L 326.612427 147.248327 
L 326.823843 147.248327 
L 326.823843 147.906836 
L 327.146001 147.906836 
L 327.204173 148.891685 
L 327.378376 148.891685 
L 327.378376 149.340404 
L 327.662655 149.340404 
L 327.662655 149.754157 
L 328.54398 149.754157 
L 328.54398 150.325253 
L 328.863857 150.325253 
L 328.863857 150.692386 
L 329.902657 150.692386 
L 329.91478 151.869543 
L 330.149504 151.869543 
L 330.149504 152.312434 
L 330.720045 152.312434 
L 330.720045 152.866047 
L 331.099014 152.866047 
L 331.175136 153.507073 
L 331.277284 153.507073 
L 331.277284 154.229685 
L 332.296993 154.229685 
L 332.296993 154.946468 
L 332.424208 154.946468 
L 332.424208 155.517564 
L 332.544189 155.517564 
L 332.544189 155.803112 
L 332.795081 155.803112 
L 332.795081 156.589826 
L 333.337659 156.589826 
L 333.337659 156.980269 
L 333.590075 156.980269 
L 333.590075 157.755328 
L 334.048777 157.755328 
L 334.048777 158.600317 
L 334.237245 158.600317 
L 334.237245 158.961623 
L 334.393506 158.961623 
L 334.393506 159.392859 
L 334.511019 159.392859 
L 334.614795 161.129457 
L 334.743156 161.129457 
L 334.743156 161.68307 
L 336.257332 161.68307 
L 336.296877 163.285636 
L 336.625481 163.285636 
L 336.625481 163.623631 
L 336.952422 163.623631 
L 336.952422 164.014074 
L 337.791588 164.014074 
L 337.791588 164.497758 
L 337.964115 164.497758 
L 338.034707 165.937153 
L 338.2865 165.937153 
L 338.395022 166.939484 
L 338.458774 166.939484 
L 338.458774 167.388203 
L 339.162227 167.388203 
L 339.262997 168.128297 
L 339.37827 168.128297 
L 339.37827 169.165593 
L 339.967653 169.165593 
L 339.967653 169.666759 
L 340.9443 169.666759 
L 340.9443 170.162098 
L 341.424862 170.162098 
L 341.424862 171.001259 
L 341.791022 171.001259 
L 341.791022 171.199394 
L 342.269356 171.199394 
L 342.269356 172.312449 
L 342.598908 172.312449 
L 342.598908 172.75534 
L 343.059454 172.75534 
L 343.059454 173.996599 
L 343.863455 173.996599 
L 343.867363 175.791473 
L 344.140272 175.791473 
L 344.206377 177.120145 
L 344.713515 177.120145 
L 344.713515 177.644621 
L 344.844491 177.644621 
L 344.844491 178.635298 
L 345.506845 178.635298 
L 345.506845 179.107326 
L 346.450291 179.107326 
L 346.557189 181.100334 
L 347.092754 181.100334 
L 347.092754 182.219216 
L 347.250523 182.219216 
L 347.250523 182.81945 
L 347.706807 182.81945 
L 347.760168 183.885884 
L 348.375229 183.885884 
L 348.375229 185.62831 
L 348.613453 185.62831 
L 348.613453 186.123648 
L 348.830905 186.123648 
L 348.830905 186.729709 
L 349.573758 186.729709 
L 349.573758 187.568871 
L 349.786225 187.568871 
L 349.878849 188.192414 
L 350.173648 188.192414 
L 350.191364 189.777497 
L 350.897807 189.777497 
L 350.932839 191.024584 
L 351.749823 191.024584 
L 351.749823 191.852091 
L 351.902672 191.852091 
L 351.902672 192.283327 
L 353.065203 192.283327 
L 353.065203 193.489621 
L 353.526105 193.489621 
L 353.615204 196.648132 
L 354.092228 196.648132 
L 354.092228 197.580533 
L 354.438162 197.580533 
L 354.438162 198.064217 
L 354.6617 198.064217 
L 354.6617 198.751863 
L 355.64595 198.751863 
L 355.64595 201.001282 
L 355.92536 201.001282 
L 356.0274 202.819465 
L 356.340611 202.819465 
L 356.340611 203.775177 
L 357.066117 203.775177 
L 357.174323 205.226227 
L 357.352151 205.226227 
L 357.352151 205.966321 
L 358.078995 205.966321 
L 358.086834 207.318303 
L 358.555425 207.318303 
L 358.555425 207.860261 
L 359.259698 207.860261 
L 359.259698 208.536253 
L 359.421138 208.536253 
L 359.493272 210.861429 
L 359.623521 210.861429 
L 359.623521 212.679612 
L 360.782601 212.679612 
L 360.782601 213.279846 
L 361.693346 213.279846 
L 361.727436 214.585208 
L 361.974419 214.585208 
L 361.974419 215.249544 
L 362.313038 215.249544 
L 362.313038 216.176119 
L 362.541704 216.176119 
L 362.541704 216.997798 
L 363.909859 216.997798 
L 363.909859 217.621341 
L 364.410743 217.621341 
L 364.410743 218.174955 
L 364.717769 218.174955 
L 364.717769 218.961669 
L 365.873841 218.961669 
L 365.873841 220.173791 
L 366.167784 220.173791 
L 366.167784 220.762369 
L 366.600711 220.762369 
L 366.600711 221.257708 
L 366.720151 221.257708 
L 366.720151 221.945354 
L 366.999354 221.945354 
L 366.999354 223.384749 
L 367.802826 223.384749 
L 367.802826 223.885915 
L 368.123049 223.885915 
L 368.123049 225.34862 
L 368.613749 225.34862 
L 368.613749 227.265871 
L 368.882253 227.265871 
L 368.882253 227.953517 
L 369.261833 227.953517 
L 369.261833 229.422049 
L 369.535543 229.422049 
L 369.535543 230.610861 
L 370.056066 230.610861 
L 370.11856 232.452355 
L 370.408756 232.452355 
L 370.408756 233.734407 
L 370.940955 233.734407 
L 370.975637 234.760049 
L 371.20254 234.760049 
L 371.20254 236.216926 
L 372.164075 236.216926 
L 372.164075 236.95702 
L 372.455919 236.95702 
L 372.455919 237.586391 
L 372.727705 237.586391 
L 372.727705 238.443035 
L 373.354574 238.443035 
L 373.354574 238.955856 
L 373.658352 238.955856 
L 373.658352 239.480332 
L 374.095452 239.480332 
L 374.095452 241.24024 
L 374.688646 241.24024 
L 374.688646 241.834646 
L 374.94156 241.834646 
L 374.94156 242.493155 
L 375.270437 242.493155 
L 375.270437 243.629519 
L 375.692029 243.629519 
L 375.776137 245.395255 
L 375.879185 245.395255 
L 375.968399 247.201783 
L 377.952202 247.201783 
L 377.952202 248.373113 
L 378.129773 248.373113 
L 378.129773 249.037449 
L 378.84204 249.037449 
L 378.84204 250.278709 
L 379.06451 250.278709 
L 379.06451 250.803185 
L 379.303154 250.803185 
L 379.303154 251.345143 
L 379.58477 251.345143 
L 379.58477 252.190132 
L 381.091239 252.190132 
L 381.091239 253.268221 
L 381.368467 253.268221 
L 381.368467 254.480343 
L 381.847787 254.480343 
L 381.877085 257.026965 
L 382.229779 257.026965 
L 382.229779 258.244915 
L 382.723124 258.244915 
L 382.723124 258.868459 
L 383.376702 258.868459 
L 383.376702 259.853308 
L 384.170486 259.853308 
L 384.170486 261.170325 
L 385.440521 261.170325 
L 385.440521 261.910419 
L 385.690538 261.910419 
L 385.695651 263.402262 
L 386.251591 263.402262 
L 386.35998 264.596901 
L 387.062619 264.596901 
L 387.062619 265.919746 
L 387.749776 265.919746 
L 387.749776 266.624875 
L 388.176306 266.624875 
L 388.176306 267.178488 
L 388.659649 267.178488 
L 388.744083 268.577091 
L 389.507743 268.577091 
L 389.507743 269.637698 
L 389.912326 269.637698 
L 389.912326 270.436067 
L 390.920148 270.436067 
L 390.920148 271.181988 
L 391.085699 271.181988 
L 391.085699 271.729774 
L 391.511401 271.729774 
L 391.511401 272.34749 
L 392.043787 272.34749 
L 392.076221 274.544461 
L 392.553432 274.544461 
L 392.553432 275.0398 
L 394.324981 275.0398 
L 394.324981 276.211129 
L 394.661432 276.211129 
L 394.672112 277.720454 
L 394.816128 277.720454 
L 394.816128 279.357985 
L 395.69107 279.357985 
L 395.69107 279.818358 
L 395.808355 279.818358 
L 395.808355 280.77407 
L 397.405346 280.77407 
L 397.405346 281.898779 
L 397.608921 281.898779 
L 397.608921 282.493185 
L 398.127303 282.493185 
L 398.127303 283.075936 
L 398.387465 283.075936 
L 398.408467 284.608572 
L 398.659135 284.608572 
L 398.659135 285.028152 
L 400.297423 285.028152 
L 400.297423 286.082932 
L 400.717813 286.082932 
L 400.717813 286.519995 
L 401.144342 286.519995 
L 401.175736 287.679669 
L 401.894408 287.679669 
L 401.894408 288.303213 
L 402.872259 288.303213 
L 402.880097 290.395289 
L 403.3518 290.395289 
L 403.3518 291.077108 
L 404.053731 291.077108 
L 404.053731 291.409276 
L 405.044419 291.409276 
L 405.044419 292.213472 
L 405.787524 292.213472 
L 405.787524 292.714638 
L 406.443601 292.714638 
L 406.443601 293.425595 
L 407.247847 293.425595 
L 407.293252 295.453568 
L 407.590524 295.453568 
L 407.590524 295.995527 
L 409.064549 295.995527 
L 409.064549 296.834688 
L 409.909473 296.834688 
L 409.909473 297.225131 
L 411.090264 297.225131 
L 411.090264 297.609747 
L 411.393974 297.609747 
L 411.393974 298.652871 
L 412.957905 298.652871 
L 412.957905 299.054969 
L 413.575954 299.054969 
L 413.575954 299.40462 
L 414.173671 299.40462 
L 414.173671 300.127231 
L 415.13397 300.127231 
L 415.13397 300.587605 
L 415.7689 300.587605 
L 415.7689 301.560799 
L 416.405283 301.560799 
L 416.405283 302.12024 
L 417.475958 302.12024 
L 417.552207 303.046814 
L 419.029284 303.046814 
L 419.029284 303.985043 
L 419.725161 303.985043 
L 419.757767 305.249613 
L 419.871155 305.249613 
L 419.871155 305.506023 
L 420.572381 305.506023 
L 420.572381 306.461735 
L 421.640652 306.461735 
L 421.640652 307.143554 
L 422.840787 307.143554 
L 422.919587 308.175023 
L 423.043059 308.175023 
L 423.043059 308.915117 
L 423.440582 308.915117 
L 423.440582 309.387145 
L 423.586963 309.387145 
L 423.586963 310.325374 
L 424.846172 310.325374 
L 424.846172 311.316051 
L 425.034485 311.316051 
L 425.095652 311.92794 
L 425.454259 311.92794 
L 425.454259 312.388313 
L 427.918266 312.388313 
L 427.967196 315.838199 
L 428.33035 315.838199 
L 428.33035 316.409295 
L 428.992013 316.409295 
L 428.992013 316.927943 
L 429.574408 316.927943 
L 429.574408 317.837035 
L 430.345592 317.837035 
L 430.345592 318.244961 
L 440.774967 318.244961 
L 440.774967 318.594611 
L 441.035641 318.594611 
L 441.035641 319.36967 
L 442.008511 319.36967 
L 442.008511 320.179694 
L 442.805404 320.179694 
L 442.805404 320.849858 
L 445.806634 320.849858 
L 445.806634 321.502539 
L 446.0262 321.502539 
L 446.0262 322.691351 
L 446.671354 322.691351 
L 446.671354 322.883659 
L 447.261267 322.883659 
L 447.261267 323.827716 
L 448.269055 323.827716 
L 448.269055 324.830047 
L 451.74719 324.830047 
L 451.74719 325.541004 
L 452.713058 325.541004 
L 452.713058 326.764781 
L 452.874703 326.764781 
L 452.874703 327.580632 
L 453.477043 327.580632 
L 453.477043 327.79625 
L 453.477043 327.79625 
" style="fill:none;opacity:0.7;stroke:#2166ac;stroke-linecap:round;stroke-width:3.0;"/>
   </g>
   <g id="patch_3">
    <path d="M 43.354062 327.79625 
L 43.354062 20.89625 
" style="fill:none;"/>
   </g>
   <g id="patch_4">
    <path d="M 43.354062 20.89625 
L 489.754062 20.89625 
" style="fill:none;"/>
   </g>
   <g id="patch_5">
    <path d="M 489.754062 327.79625 
L 489.754062 20.89625 
" style="fill:none;"/>
   </g>
   <g id="patch_6">
    <path d="M 43.354062 327.79625 
L 489.754062 327.79625 
" style="fill:none;"/>
   </g>
   <g id="text_16">
    <!-- CDF of log10 Income -->
    <defs>
     <path d="M 17.625 46.4375 
L 17.625 0 
L 8.84375 0 
L 8.84375 46.4375 
L 1.421875 46.4375 
L 1.421875 52.828125 
L 8.84375 52.828125 
L 8.84375 58.796875 
Q 8.84375 61.671875 9.375 64.140625 
Q 9.90625 66.609375 11.34375 68.4375 
Q 12.796875 70.265625 15.28125 71.3125 
Q 17.78125 72.359375 21.734375 72.359375 
Q 23.296875 72.359375 24.96875 72.21875 
Q 26.65625 72.078125 27.9375 71.78125 
L 27.9375 65.09375 
Q 27.09375 65.234375 26 65.359375 
Q 24.90625 65.484375 24.03125 65.484375 
Q 22.078125 65.484375 20.828125 64.9375 
Q 19.578125 64.40625 18.875 63.40625 
Q 18.171875 62.40625 17.890625 60.9375 
Q 17.625 59.46875 17.625 57.5625 
L 17.625 52.828125 
L 27.9375 52.828125 
L 27.9375 46.4375 
z
" id="LiberationSans-66"/>
     <path d="M 9.234375 0 
L 9.234375 68.796875 
L 18.5625 68.796875 
L 18.5625 0 
z
" id="LiberationSans-49"/>
    </defs>
    <g style="fill:#262626;" transform="translate(209.8653125 15.89625)scale(0.12 -0.12)">
     <use xlink:href="#LiberationSans-43"/>
     <use x="72.216796875" xlink:href="#LiberationSans-44"/>
     <use x="144.43359375" xlink:href="#LiberationSans-46"/>
     <use x="205.517578125" xlink:href="#LiberationSans-20"/>
     <use x="233.30078125" xlink:href="#LiberationSans-6f"/>
     <use x="288.916015625" xlink:href="#LiberationSans-66"/>
     <use x="316.69921875" xlink:href="#LiberationSans-20"/>
     <use x="344.482421875" xlink:href="#LiberationSans-6c"/>
     <use x="366.69921875" xlink:href="#LiberationSans-6f"/>
     <use x="422.314453125" xlink:href="#LiberationSans-67"/>
     <use x="477.9296875" xlink:href="#LiberationSans-31"/>
     <use x="533.544921875" xlink:href="#LiberationSans-30"/>
     <use x="589.16015625" xlink:href="#LiberationSans-20"/>
     <use x="616.943359375" xlink:href="#LiberationSans-49"/>
     <use x="644.7265625" xlink:href="#LiberationSans-6e"/>
     <use x="700.341796875" xlink:href="#LiberationSans-63"/>
     <use x="750.341796875" xlink:href="#LiberationSans-6f"/>
     <use x="805.95703125" xlink:href="#LiberationSans-6d"/>
     <use x="889.2578125" xlink:href="#LiberationSans-65"/>
    </g>
   </g>
  </g>
 </g>
 <defs>
  <clipPath id="p21b3c24e62">
   <rect height="306.9" width="446.4" x="43.3540625" y="20.89625"/>
  </clipPath>
 </defs>
</svg>
